<svg width="417" height="416" viewBox="0 0 417 416" fill="none" xmlns="http://www.w3.org/2000/svg">
<path opacity="0.02" d="M228.562 46.9721C232.161 47.4095 235.729 47.8432 239.257 48.6151C241.01 48.8282 242.734 49.2873 244.465 49.6849C245.172 49.7709 245.88 49.8569 246.561 50.1581C248.442 50.6051 250.289 51.0791 252.132 51.5839L253.883 52.0775C255.814 52.6242 257.742 53.2016 259.631 53.8369C260.185 53.9041 260.712 54.1868 261.255 54.3463C263.141 55.0123 265.057 55.682 266.966 56.4132C267.52 56.4805 268.071 56.8281 268.606 57.0491C270.453 57.7729 272.266 58.5236 274.076 59.3052C274.699 59.5681 275.35 59.8656 276 60.1631C277.656 60.9259 279.342 61.6924 280.959 62.513C281.787 62.8944 282.576 63.3335 283.4 63.7456C284.841 64.4822 286.339 65.2571 287.713 66.017L290.622 67.7744C291.789 68.4467 292.956 69.119 294.115 69.8527C295.275 70.5865 296.638 71.4384 297.879 72.2756L300.51 73.9994C302.036 75.0584 303.531 76.1137 305.018 77.2305L306.799 78.5077C308.514 79.8081 310.19 81.1663 311.863 82.5552L312.943 83.4353C314.758 84.9352 316.532 86.5235 318.305 88.1118L319.038 88.7624C320.777 90.3778 322.478 92.051 324.145 93.7511L325.036 94.6394C326.092 95.7038 327.111 96.826 328.133 97.9175L46.6197 200.392L0.962507 216.465C1.1656 220.702 1.49631 225.172 2.01998 229.853C2.25062 232.065 2.51953 234.22 2.84158 236.193L2.80794 236.47L2.77807 236.716C3.10934 239.127 3.4863 241.42 3.87075 243.65C10.9839 283.894 29.8267 321.144 58.0363 350.729L59.8071 352.598L60.0307 352.812C74.7609 367.903 91.7211 380.644 110.319 390.592L110.596 390.625L114.088 392.454L116.029 393.438L117.858 394.316L121.515 396.071L122.1 396.142C141.322 405.045 161.802 410.934 182.818 413.599L185.895 413.973C214.887 417.315 244.258 414.506 272.088 405.728L272.426 405.769C273.498 405.431 274.538 405.09 275.674 404.729L277.755 404.046L279.226 403.506C327.321 386.419 367.449 352.252 391.973 307.51L392.294 306.924L395.016 301.733L395.963 299.851L397.207 297.319L399.115 293.183L399.931 291.348L401.761 287.077L402.2 286.039C402.866 284.404 403.506 282.734 404.112 281.092L404.573 279.869L406.422 274.665L406.49 274.111C407.806 270.215 409.003 266.273 410.085 262.255C412.949 251.726 414.975 240.987 416.142 230.138L365.611 248.551C364.871 251.3 364.101 254.046 363.242 256.749L362.656 258.488L361.773 261.126L360.63 264.107L359.793 266.377L358.863 268.635L357.936 270.862L357.364 272.228C356.282 274.717 355.11 277.164 353.912 279.577L353.855 280.038C353.317 281.127 352.756 282.151 352.191 283.206L350.266 286.716L350.232 286.993C348.884 289.356 347.477 291.681 346.047 293.941L345.742 294.403C344.434 296.428 343.099 298.418 341.895 300.363L340.771 301.911C340.239 302.689 339.65 303.428 339.091 304.171L338.904 304.429L338.874 304.675C337.236 306.848 335.541 308.982 333.792 311.047L333.459 311.474C331.893 313.312 330.304 315.084 328.719 316.826L327.394 318.225C326.103 319.597 324.805 321.031 323.503 322.245L321.101 324.543L318.112 327.299C316.986 328.348 315.822 329.361 314.621 330.338L312.536 332.082C311.08 333.278 309.593 334.47 308.078 335.627L306.74 336.619C305.019 337.939 303.29 339.32 301.503 340.413L300.686 340.969C298.781 342.266 296.806 343.617 294.861 344.722L294.285 345.089C292.264 346.31 290.246 347.5 288.206 348.625C287.968 348.783 287.703 348.907 287.469 349.035C285.497 350.105 283.529 351.145 281.503 352.147L280.275 352.747C278.452 353.617 276.599 354.484 274.764 355.197C274.069 355.518 273.378 355.809 272.688 356.099C271.11 356.75 269.41 357.385 267.928 358.016C266.88 358.42 265.836 358.792 264.669 359.149C263.501 359.507 262.154 360.06 260.887 360.468C259.62 360.876 257.992 361.427 256.568 361.846C255.658 362.141 254.782 362.409 253.88 362.643C252.068 363.171 250.228 363.665 248.396 364.098C247.817 364.246 247.271 364.367 246.722 364.519C244.602 365.01 242.42 365.493 240.312 365.892L239.478 366.072C237.116 366.502 234.726 366.898 232.344 367.233L232.006 367.192C229.528 367.546 227.088 367.842 224.595 368.069L224.318 368.036C221.916 368.274 219.461 368.444 217.043 368.556L216.428 368.481C214.168 368.581 211.885 368.615 209.606 368.619C209.175 368.567 208.745 368.514 208.295 368.616C206.3 368.592 204.278 368.533 202.291 368.448L199.869 368.34C198.239 368.142 196.774 368.12 195.013 367.969C193.252 367.817 192.46 367.658 191.199 367.505L187.445 367.049C185.661 366.832 183.877 366.615 182.084 366.21C181.408 366.128 180.731 366.046 180.023 365.96C177.716 365.679 175.45 365.061 173.173 364.534C172.945 364.524 172.719 364.496 172.496 364.452C169.884 363.854 167.252 363.16 164.659 362.408C159.438 360.931 154.347 359.158 149.401 357.215C149.247 357.196 149.062 357.174 148.878 357.151C146.911 356.382 144.955 355.52 142.938 354.651L140.956 353.755C139.627 353.125 138.334 352.469 137.036 351.843C135.739 351.218 134.533 350.603 133.301 349.954C132.6 349.557 131.93 349.164 131.225 348.797C129.442 347.801 127.659 346.804 125.883 345.746C125.659 345.591 125.426 345.448 125.186 345.318C120.71 342.59 116.295 339.619 112.006 336.384C109.921 334.789 107.87 333.167 105.858 331.487L105.037 330.794C103.337 329.371 101.702 327.924 100.071 326.447L98.305 324.797C97.0747 323.618 95.8715 322.473 94.7102 321.24C93.549 320.007 92.9012 319.429 91.9254 318.468L90.1854 316.603L182.164 283.103L182.186 282.918L416.952 197.788C416.901 191.804 416.502 185.828 415.756 179.89L415.808 179.459L415.868 178.967L415.77 178.487L415.542 177.025C415.349 175.784 415.187 174.548 414.96 173.335L414.756 172.187L414.356 169.829C413.545 165.456 412.631 161.164 411.544 157.008L410.458 153.1L409.897 151.035C409.302 148.997 408.711 146.929 408.05 144.914L407.125 141.994L405.297 136.748L403.884 132.957L402.19 128.664L400.515 124.717L399.682 122.837L398.644 120.589L397.335 117.747L395.478 114.027L394.777 112.6L394.072 111.204C393.062 109.24 392.018 107.304 390.912 105.36L389.852 103.546C388.591 101.334 387.262 99.1753 385.932 97.0169L384.858 95.3263C383.52 93.2294 382.241 91.1708 380.685 89.0785C380.472 88.7719 380.294 88.4382 380.051 88.1278L378.452 85.8743L376.2 82.8238C374.775 80.9346 373.347 79.0762 371.883 77.2448L370.907 76.0342C358.039 60.1889 342.89 46.34 325.954 34.9403C324.717 34.0723 323.473 33.266 322.198 32.4559L321.331 31.8824C320.375 31.2671 319.416 30.6827 318.426 30.0944L316.597 28.9671C315.984 28.6119 315.341 28.253 314.732 27.867C314.124 27.4811 312.838 26.763 311.809 26.2325C311.502 26.1951 311.224 25.9117 310.935 25.7206C287.234 12.4779 261.166 4.00962 234.205 0.795337L228.562 46.9721ZM355.886 139.011C356.335 139.939 356.719 140.891 357.137 141.815C357.556 142.74 358.241 144.29 358.745 145.536L359.971 148.805L361.348 152.373L362.482 155.631L363.729 159.496L364.65 162.447C365.07 163.871 365.452 165.352 365.807 166.799L63.1215 276.778C58.7999 267.646 55.3475 258.128 52.8098 248.35L355.494 138.121L355.886 139.011Z" fill="#003399"/>
</svg>
