<svg width="14" height="15" viewBox="0 0 14 15" fill="none" xmlns="http://www.w3.org/2000/svg">
<g clip-path="url(#clip0_770_7132)">
<path d="M1.75 6.55143H12.25M4.66667 4.2181V1.88477M9.33333 4.2181V1.88477M5.48333 13.5514H8.51667C9.82346 13.5514 10.4769 13.5514 10.976 13.2971C11.415 13.0734 11.772 12.7165 11.9957 12.2774C12.25 11.7783 12.25 11.1249 12.25 9.8181V6.78477C12.25 5.47798 12.25 4.82458 11.9957 4.32545C11.772 3.88641 11.415 3.52946 10.976 3.30575C10.4769 3.05143 9.82346 3.05143 8.51667 3.05143H5.48333C4.17654 3.05143 3.52315 3.05143 3.02402 3.30575C2.58498 3.52946 2.22802 3.88641 2.00432 4.32545C1.75 4.82458 1.75 5.47798 1.75 6.78477V9.8181C1.75 11.1249 1.75 11.7783 2.00432 12.2774C2.22802 12.7165 2.58498 13.0734 3.02402 13.2971C3.52315 13.5514 4.17654 13.5514 5.48333 13.5514Z" stroke="#A4A4A4" stroke-linecap="round"/>
</g>
<defs>
<clipPath id="clip0_770_7132">
<rect width="14" height="14" fill="white" transform="translate(0 0.717773)"/>
</clipPath>
</defs>
</svg>
