<svg width="34" height="34" viewBox="0 0 34 34" fill="none" xmlns="http://www.w3.org/2000/svg">
<path d="M11.6768 7.15479L10.7823 6.70758L10.7823 6.70759L11.6768 7.15479ZM11.789 6.93027L10.8946 6.48305L10.8946 6.48305L11.789 6.93027ZM22.488 6.93027L21.5936 7.37748V7.37748L22.488 6.93027ZM22.6003 7.15479L23.4947 6.70759L23.4947 6.70758L22.6003 7.15479ZM22.7147 7.24738L22.5872 8.23922L22.5872 8.23922L22.7147 7.24738ZM22.6179 7.18758L21.7878 7.74518L21.7878 7.74521L22.6179 7.18758ZM20.4658 4.64474L20.7919 3.69939V3.69939L20.4658 4.64474ZM21.4949 5.28078L22.1947 4.56636V4.56636L21.4949 5.28078ZM12.7821 5.28078L12.0823 4.56636L12.0823 4.56636L12.7821 5.28078ZM13.8112 4.64474L14.1373 5.59008V5.59008L13.8112 4.64474ZM11.5623 7.24738L11.4348 6.25554L11.4348 6.25555L11.5623 7.24738ZM11.6591 7.18758L10.829 6.62994L10.829 6.62997L11.6591 7.18758ZM7.75189 28.6825L8.20588 27.7915L7.75189 28.6825ZM5.34454 26.2752L6.23555 25.8212H6.23555L5.34454 26.2752ZM28.9325 26.2752L28.0415 25.8212H28.0415L28.9325 26.2752ZM26.5251 28.6825L26.0711 27.7915V27.7915L26.5251 28.6825ZM29.4425 11.7633L30.4261 11.5828V11.5828L29.4425 11.7633ZM25.0181 7.3389L24.8377 8.32249L25.0181 7.3389ZM4.83454 11.7633L5.81813 11.9437L4.83454 11.7633ZM9.2589 7.3389L9.07848 6.35531L9.2589 7.3389ZM28.5329 14.0295V20.4692H30.5329V14.0295H28.5329ZM20.7191 28.2829H13.5579V30.2829H20.7191V28.2829ZM5.74414 20.4692V14.0295H3.74414V20.4692H5.74414ZM12.5712 7.60201L12.6834 7.37748L10.8946 6.48305L10.7823 6.70758L12.5712 7.60201ZM15.7307 5.4942H18.5464V3.4942H15.7307V5.4942ZM21.5936 7.37748L21.7058 7.60201L23.4947 6.70758L23.3824 6.48305L21.5936 7.37748ZM22.7519 6.24851C22.7465 6.24851 22.7449 6.2485 22.744 6.2485C22.7433 6.2485 22.7472 6.2485 22.7535 6.24865C22.7666 6.24897 22.7996 6.25007 22.8422 6.25554L22.5872 8.23922C22.6385 8.24582 22.6806 8.24748 22.7054 8.24808C22.726 8.24857 22.747 8.24851 22.7519 8.24851V6.24851ZM21.7058 7.602C21.708 7.60635 21.7173 7.62518 21.727 7.6434C21.7386 7.66532 21.7589 7.70222 21.7878 7.74518L23.448 6.62999C23.472 6.66563 23.4877 6.69462 23.4938 6.70622C23.4968 6.71174 23.4985 6.71527 23.4982 6.7146C23.4978 6.71386 23.4971 6.71245 23.4947 6.70759L21.7058 7.602ZM22.8422 6.25554C23.0886 6.28723 23.3094 6.4237 23.448 6.62996L21.7878 7.74521C21.9706 8.01735 22.262 8.19741 22.5872 8.23922L22.8422 6.25554ZM18.5464 5.4942C19.6075 5.4942 19.8996 5.50725 20.1397 5.59008L20.7919 3.69939C20.1592 3.48115 19.4625 3.4942 18.5464 3.4942V5.4942ZM23.3824 6.48305C22.9727 5.66361 22.6728 5.03468 22.1947 4.56636L20.7952 5.9952C20.9767 6.17295 21.119 6.42834 21.5936 7.37748L23.3824 6.48305ZM20.1397 5.59008C20.3856 5.67487 20.6095 5.81325 20.7952 5.9952L22.1947 4.56636C21.7971 4.17698 21.318 3.88085 20.7919 3.69939L20.1397 5.59008ZM12.6834 7.37748C13.158 6.42834 13.3003 6.17295 13.4818 5.9952L12.0823 4.56636C11.6042 5.03468 11.3043 5.6636 10.8946 6.48305L12.6834 7.37748ZM15.7307 3.4942C14.8145 3.4942 14.1179 3.48115 13.4851 3.69939L14.1373 5.59008C14.3774 5.50725 14.6695 5.4942 15.7307 5.4942V3.4942ZM13.4818 5.9952C13.6676 5.81325 13.8915 5.67487 14.1373 5.59008L13.4851 3.69939C12.9591 3.88085 12.4799 4.17698 12.0823 4.56636L13.4818 5.9952ZM11.5251 8.24851C11.53 8.24851 11.551 8.24857 11.5716 8.24808C11.5964 8.24748 11.6385 8.24582 11.6899 8.23922L11.4348 6.25555C11.4774 6.25007 11.5104 6.24897 11.5235 6.24865C11.5298 6.2485 11.5337 6.2485 11.533 6.2485C11.5321 6.2485 11.5306 6.24851 11.5251 6.24851V8.24851ZM10.7823 6.70759C10.7799 6.71245 10.7792 6.71386 10.7788 6.7146C10.7785 6.71527 10.7802 6.71174 10.7832 6.70621C10.7893 6.6946 10.8051 6.66559 10.829 6.62994L12.4892 7.74523C12.5181 7.70226 12.5384 7.66534 12.55 7.64341C12.5597 7.62518 12.569 7.60635 12.5712 7.60199L10.7823 6.70759ZM11.6899 8.23922C12.015 8.19741 12.3064 8.01735 12.4892 7.7452L10.829 6.62997C10.9676 6.4237 11.1884 6.28723 11.4348 6.25554L11.6899 8.23922ZM13.5579 28.2829C11.9989 28.2829 10.8897 28.2822 10.0213 28.2112C9.16457 28.1412 8.63059 28.0079 8.20588 27.7915L7.2979 29.5735C8.05155 29.9575 8.87803 30.1245 9.85844 30.2046C10.8272 30.2837 12.0319 30.2829 13.5579 30.2829V28.2829ZM3.74414 20.4692C3.74414 21.9952 3.74336 23.1999 3.82251 24.1686C3.90261 25.1491 4.06953 25.9755 4.45354 26.7292L6.23555 25.8212C6.01915 25.3965 5.88587 24.8625 5.81587 24.0058C5.74492 23.1374 5.74414 22.0282 5.74414 20.4692H3.74414ZM8.20588 27.7915C7.35753 27.3593 6.6678 26.6695 6.23555 25.8212L4.45354 26.7292C5.07754 27.9538 6.07323 28.9495 7.2979 29.5735L8.20588 27.7915ZM28.5329 20.4692C28.5329 22.0282 28.5321 23.1374 28.4611 24.0058C28.3911 24.8625 28.2579 25.3965 28.0415 25.8212L29.8235 26.7292C30.2075 25.9755 30.3744 25.1491 30.4545 24.1686C30.5337 23.1999 30.5329 21.9952 30.5329 20.4692H28.5329ZM20.7191 30.2829C22.2452 30.2829 23.4498 30.2837 24.4186 30.2046C25.399 30.1245 26.2255 29.9575 26.9791 29.5735L26.0711 27.7915C25.6464 28.0079 25.1124 28.1412 24.2557 28.2112C23.3873 28.2822 22.2782 28.2829 20.7191 28.2829V30.2829ZM28.0415 25.8212C27.6092 26.6695 26.9195 27.3593 26.0711 27.7915L26.9791 29.5735C28.2038 28.9495 29.1995 27.9538 29.8235 26.7292L28.0415 25.8212ZM30.5329 14.0295C30.5329 12.8914 30.537 12.1877 30.4261 11.5828L28.4589 11.9437C28.5287 12.3245 28.5329 12.803 28.5329 14.0295H30.5329ZM22.7519 8.24851C23.9784 8.24851 24.4569 8.25264 24.8377 8.32249L25.1985 6.35531C24.5937 6.24437 23.8899 6.24851 22.7519 6.24851V8.24851ZM30.4261 11.5828C29.9383 8.92378 27.8576 6.84306 25.1985 6.35531L24.8377 8.32249C26.6797 8.66036 28.121 10.1017 28.4589 11.9437L30.4261 11.5828ZM5.74414 14.0295C5.74414 12.803 5.74828 12.3245 5.81813 11.9437L3.85095 11.5828C3.74 12.1877 3.74414 12.8914 3.74414 14.0295H5.74414ZM11.5251 6.24851C10.3871 6.24851 9.68331 6.24437 9.07848 6.35531L9.43931 8.32249C9.82012 8.25264 10.2986 8.24851 11.5251 8.24851V6.24851ZM5.81813 11.9437C6.156 10.1017 7.59734 8.66036 9.43931 8.32249L9.07848 6.35531C6.41941 6.84306 4.33869 8.92378 3.85095 11.5828L5.81813 11.9437ZM21.6471 18.2657C21.6471 20.7558 19.6285 22.7743 17.1385 22.7743V24.7743C20.7331 24.7743 23.6471 21.8603 23.6471 18.2657H21.6471ZM17.1385 22.7743C14.6485 22.7743 12.6299 20.7558 12.6299 18.2657H10.6299C10.6299 21.8603 13.5439 24.7743 17.1385 24.7743V22.7743ZM12.6299 18.2657C12.6299 15.7757 14.6485 13.7571 17.1385 13.7571V11.7571C13.5439 11.7571 10.6299 14.6711 10.6299 18.2657H12.6299ZM17.1385 13.7571C19.6285 13.7571 21.6471 15.7757 21.6471 18.2657H23.6471C23.6471 14.6711 20.7331 11.7571 17.1385 11.7571V13.7571Z" fill="white"/>
</svg>
