<svg width="14" height="14" viewBox="0 0 14 14" fill="none" xmlns="http://www.w3.org/2000/svg">
<g clip-path="url(#clip0_450_15795)">
<path d="M7 0C3.13425 0 0 3.13425 0 7C0 10.8658 3.13425 14 7 14C10.8658 14 14 10.8658 14 7C14 3.13425 10.8658 0 7 0ZM7 13.125C3.62305 13.125 0.875 10.377 0.875 7C0.875 3.62305 3.62305 0.875 7 0.875C10.377 0.875 13.125 3.62305 13.125 7C13.125 10.377 10.377 13.125 7 13.125Z" fill="#B0BEC5"/>
<path d="M8.23735 7.00008L10.0933 5.1441C10.4351 4.8023 10.4351 4.24777 10.0933 3.90674C9.75241 3.56494 9.19777 3.56494 8.85598 3.90674L6.99999 5.76283L5.14401 3.90685C4.80221 3.56505 4.24768 3.56505 3.90665 3.90685C3.56485 4.24777 3.56485 4.80241 3.90665 5.14421L5.76274 7.00008L3.90676 8.85607C3.56496 9.19786 3.56496 9.75239 3.90676 10.0934C4.24768 10.4352 4.80232 10.4352 5.14412 10.0934L6.99999 8.23744L8.85598 10.0934C9.19777 10.4352 9.7523 10.4352 10.0933 10.0934C10.4351 9.7525 10.4351 9.19786 10.0933 8.85607L8.23735 7.00008Z" fill="#F44336"/>
</g>
<defs>
<clipPath id="clip0_450_15795">
<rect width="14" height="14" fill="white"/>
</clipPath>
</defs>
</svg>
