<svg width="24" height="25" viewBox="0 0 24 25" fill="none" xmlns="http://www.w3.org/2000/svg">
<path d="M2.5 12.1372H5.88197C6.56717 12.1372 7.19357 12.5243 7.5 13.1372C7.80643 13.7501 8.43283 14.1372 9.11803 14.1372H14.882C15.5672 14.1372 16.1936 13.7501 16.5 13.1372C16.8064 12.5243 17.4328 12.1372 18.118 12.1372H21.5M8.96656 4.13721H15.0334C16.1103 4.13721 16.6487 4.13721 17.1241 4.30117C17.5445 4.44617 17.9274 4.6828 18.2451 4.99395C18.6043 5.3458 18.8451 5.82741 19.3267 6.79058L21.4932 11.1237C21.6822 11.5017 21.7767 11.6907 21.8434 11.8888C21.9026 12.0647 21.9453 12.2457 21.971 12.4295C22 12.6364 22 12.8477 22 13.2703V15.3372C22 17.0174 22 17.8574 21.673 18.4992C21.3854 19.0637 20.9265 19.5226 20.362 19.8102C19.7202 20.1372 18.8802 20.1372 17.2 20.1372H6.8C5.11984 20.1372 4.27976 20.1372 3.63803 19.8102C3.07354 19.5226 2.6146 19.0637 2.32698 18.4992C2 17.8574 2 17.0174 2 15.3372V13.2703C2 12.8477 2 12.6364 2.02897 12.4295C2.05471 12.2457 2.09744 12.0647 2.15662 11.8888C2.22326 11.6907 2.31776 11.5017 2.50675 11.1237L4.67331 6.79058C5.1549 5.8274 5.3957 5.3458 5.75495 4.99395C6.07263 4.6828 6.45551 4.44617 6.87589 4.30117C7.35125 4.13721 7.88969 4.13721 8.96656 4.13721Z" stroke="#A4A4A4" stroke-width="2" stroke-linecap="round" stroke-linejoin="round"/>
</svg>
