<svg width="24" height="25" viewBox="0 0 24 25" fill="none" xmlns="http://www.w3.org/2000/svg">
<path d="M18.8925 18.1729L19.8925 18.1818L18.8925 18.1729ZM4 5.13721C3.44772 5.13721 3 5.58492 3 6.13721C3 6.68949 3.44772 7.13721 4 7.13721V5.13721ZM20 7.13721C20.5523 7.13721 21 6.68949 21 6.13721C21 5.58492 20.5523 5.13721 20 5.13721V7.13721ZM11 10.1372C11 9.58492 10.5523 9.13721 10 9.13721C9.44772 9.13721 9 9.58492 9 10.1372H11ZM9 18.1372C9 18.6895 9.44772 19.1372 10 19.1372C10.5523 19.1372 11 18.6895 11 18.1372H9ZM15 10.1372C15 9.58492 14.5523 9.13721 14 9.13721C13.4477 9.13721 13 9.58492 13 10.1372H15ZM13 18.1372C13 18.6895 13.4477 19.1372 14 19.1372C14.5523 19.1372 15 18.6895 15 18.1372H13ZM18 6.12828L17.8926 18.164L19.8925 18.1818L20 6.14614L18 6.12828ZM14.8927 21.1372H9V23.1372H14.8927V21.1372ZM4 6.13721V18.1372H6V6.13721H4ZM4 7.13721H5V5.13721H4V7.13721ZM5 7.13721H8V5.13721H5V7.13721ZM8 7.13721H16V5.13721H8V7.13721ZM16 7.13721H19V5.13721H16V7.13721ZM19 7.13721H20V5.13721H19V7.13721ZM9 5.69276C9 4.38884 10.2292 3.13721 12 3.13721V1.13721C9.35256 1.13721 7 3.06933 7 5.69276H9ZM12 3.13721C13.7708 3.13721 15 4.38884 15 5.69276H17C17 3.06933 14.6474 1.13721 12 1.13721V3.13721ZM7 5.69276V6.13721H9V5.69276H7ZM15 5.69276V6.13721H17V5.69276H15ZM9 21.1372C7.34314 21.1372 6 19.7941 6 18.1372H4C4 20.8986 6.23857 23.1372 9 23.1372V21.1372ZM17.8926 18.164C17.8779 19.8103 16.5391 21.1372 14.8927 21.1372V23.1372C17.6367 23.1372 19.868 20.9257 19.8925 18.1818L17.8926 18.164ZM9 10.1372V18.1372H11V10.1372H9ZM13 10.1372V18.1372H15V10.1372H13Z" fill="#DE0000"/>
</svg>
