<svg width="24" height="25" viewBox="0 0 24 25" fill="none" xmlns="http://www.w3.org/2000/svg">
<path d="M10 8.63944C10.1762 8.13857 10.524 7.71621 10.9817 7.44718C11.4395 7.17815 11.9777 7.07981 12.501 7.16957C13.0243 7.25934 13.499 7.53141 13.8409 7.93761C14.1829 8.34381 14.37 8.85792 14.3692 9.38888C14.3692 10.8878 12.1209 11.6372 12.1209 11.6372M12.1499 14.6372H12.1599M9.9 19.3372L11.36 21.2839C11.5771 21.5734 11.6857 21.7181 11.8188 21.7699C11.9353 21.8152 12.0647 21.8152 12.1812 21.7699C12.3143 21.7181 12.4229 21.5734 12.64 21.2839L14.1 19.3372C14.3931 18.9463 14.5397 18.7509 14.7185 18.6017C14.9569 18.4028 15.2383 18.262 15.5405 18.1907C15.7671 18.1372 16.0114 18.1372 16.5 18.1372C17.8978 18.1372 18.5967 18.1372 19.1481 17.9088C19.8831 17.6044 20.4672 17.0203 20.7716 16.2853C21 15.7339 21 15.035 21 13.6372V7.93721C21 6.25705 21 5.41697 20.673 4.77524C20.3854 4.21075 19.9265 3.75181 19.362 3.46419C18.7202 3.13721 17.8802 3.13721 16.2 3.13721H7.8C6.11984 3.13721 5.27976 3.13721 4.63803 3.46419C4.07354 3.75181 3.6146 4.21075 3.32698 4.77524C3 5.41697 3 6.25705 3 7.93721V13.6372C3 15.035 3 15.7339 3.22836 16.2853C3.53284 17.0203 4.11687 17.6044 4.85195 17.9088C5.40326 18.1372 6.10218 18.1372 7.5 18.1372C7.98858 18.1372 8.23287 18.1372 8.45951 18.1907C8.76169 18.262 9.04312 18.4028 9.2815 18.6017C9.46028 18.7509 9.60685 18.9463 9.9 19.3372Z" stroke="#A4A4A4" stroke-width="2" stroke-linecap="round" stroke-linejoin="round"/>
</svg>
