<svg width="24" height="24" viewBox="0 0 24 24" fill="none" xmlns="http://www.w3.org/2000/svg">
<path d="M12.0798 0.916992C15.7507 0.916992 18.7371 3.90331 18.7371 7.57422C18.737 8.79824 18.3967 9.99719 17.7537 11.0459C17.7441 11.066 17.735 11.0859 17.7234 11.1045L17.7244 11.1055L14.3376 16.5488C15.554 16.7488 16.5934 17.1049 17.3552 17.5762C18.1892 18.0921 18.7372 18.7773 18.7371 19.5752L18.7273 19.7568C18.6321 20.6572 17.8351 21.394 16.7322 21.9023C15.5373 22.453 13.8955 22.7822 12.0701 22.7822C10.2447 22.7822 8.60277 22.453 7.40796 21.9023C6.23198 21.3602 5.4043 20.5583 5.40405 19.5752C5.40405 18.7841 5.92586 18.1059 6.73804 17.5928C7.47915 17.1246 8.49588 16.7712 9.698 16.5654L6.43042 11.0957V11.0947C6.42103 11.079 6.41448 11.0624 6.40698 11.0469L6.28979 10.8486C5.72207 9.8477 5.42264 8.72211 5.42261 7.57422C5.42261 3.90333 8.40901 0.917044 12.0798 0.916992ZM12.4949 19.5137C12.3976 19.6698 12.2354 19.7727 12.0554 19.7959L11.9773 19.8008H11.9724C11.7862 19.7993 11.613 19.7128 11.4998 19.5693L11.4548 19.5049L10.3748 17.6963C9.27847 17.841 8.3356 18.1204 7.66479 18.4678C7.31296 18.65 7.04563 18.845 6.86987 19.04C6.69451 19.2347 6.62183 19.4153 6.62183 19.5752C6.62199 19.7449 6.71711 19.9559 6.96265 20.1904C7.20601 20.4228 7.5745 20.656 8.05933 20.8623C9.02754 21.2743 10.4186 21.5645 12.071 21.5645C13.7233 21.5644 15.1137 21.2742 16.0818 20.8623C16.5664 20.6561 16.9351 20.4237 17.1785 20.1914C17.4241 19.9568 17.5192 19.745 17.5193 19.5752L17.5046 19.4512C17.4747 19.3231 17.3972 19.1827 17.2585 19.0332C17.0738 18.8342 16.7943 18.6351 16.4285 18.4502C15.7294 18.0969 14.7525 17.8167 13.6345 17.6807L12.4949 19.5137ZM12.0798 2.13477C9.08046 2.13482 6.64038 4.57505 6.64038 7.57422C6.64041 8.59205 6.92869 9.5898 7.47534 10.46L7.5105 10.5293L11.9871 18.0225L12.7283 16.833C12.7961 16.7216 12.8097 16.6972 12.8689 16.6064L16.6541 10.5205C16.6636 10.5006 16.6723 10.4801 16.6843 10.4609V10.46L16.8767 10.1279C17.298 9.34039 17.5193 8.46532 17.5193 7.57422C17.5193 4.57501 15.079 2.13477 12.0798 2.13477Z" fill="#A4A4A4" stroke="#A4A4A4" stroke-width="0.5"/>
<path d="M12.071 4.99438C13.4934 4.99463 14.6501 6.15203 14.6501 7.57446C14.6499 8.9967 13.4933 10.1533 12.071 10.1536C10.6486 10.1536 9.4912 8.99685 9.49097 7.57446C9.49097 6.15188 10.6485 4.99438 12.071 4.99438ZM12.071 6.21216C11.3202 6.21216 10.7087 6.82358 10.7087 7.57446C10.709 8.32517 11.3201 8.93579 12.071 8.93579C12.8218 8.93554 13.4321 8.32501 13.4324 7.57446C13.4324 6.82373 12.8217 6.21241 12.071 6.21216Z" fill="#A4A4A4" stroke="#A4A4A4" stroke-width="0.5"/>
</svg>
