<svg width="140" height="135" viewBox="0 0 140 135" fill="none" xmlns="http://www.w3.org/2000/svg">
<g opacity="0.1">
<circle cx="77" cy="58" r="77" fill="white"/>
<path d="M113.157 57.6614C113.157 58.4755 113.13 59.2904 113.075 60.106C113.049 60.5051 113.02 60.9042 112.98 61.2939C112.965 61.4578 112.946 61.6193 112.927 61.7809C112.879 62.2101 112.824 62.6401 112.762 63.0709L112.697 63.4771C112.626 63.9237 112.546 64.3704 112.458 64.817C112.434 64.9405 112.408 65.0546 112.381 65.19C112.288 65.6366 112.188 66.0832 112.075 66.5275C112.044 66.6582 112.008 66.7864 111.975 66.9171C111.862 67.3471 111.735 67.7747 111.616 68.2024C111.57 68.3544 111.522 68.5064 111.472 68.6609C111.348 69.0552 111.218 69.4496 111.079 69.8487C111.012 70.0411 110.941 70.2336 110.869 70.426C110.74 70.7705 110.608 71.1126 110.469 71.4547C110.369 71.6922 110.263 71.9441 110.158 72.1888C110.036 72.4715 109.919 72.7518 109.782 73.0321C109.646 73.3125 109.49 73.6427 109.337 73.9468C109.232 74.1606 109.126 74.372 109.016 74.5835C108.822 74.9541 108.621 75.3207 108.413 75.6834C108.332 75.8283 108.251 75.9732 108.174 76.1158C107.935 76.5363 107.669 76.952 107.403 77.3678L107.233 77.6338C106.941 78.0805 106.635 78.5223 106.319 78.9618L106.192 79.1424C105.876 79.5748 105.546 80.0024 105.209 80.4253C105.149 80.5013 105.091 80.5773 105.031 80.6628C104.816 80.9289 104.596 81.1855 104.373 81.4444L104.347 81.4753L73.4272 21.0687C71.7966 17.795 70.1659 14.5221 68.5352 11.25C67.5779 11.4092 66.5846 11.604 65.5388 11.8487C65.0433 11.9627 64.5623 12.0862 64.1027 12.2074H64.0644H64.0381L63.9783 12.2217C63.447 12.3642 62.9324 12.5115 62.4394 12.6612C53.5296 15.3583 45.6201 20.6061 39.7025 27.7468C39.5805 27.8941 39.4632 28.0437 39.3316 28.1934L39.2885 28.248C36.2799 31.9686 33.8625 36.1243 32.1204 40.5707C32.1204 40.5921 32.1036 40.6111 32.0964 40.6325C31.9887 40.9105 31.8811 41.1884 31.7781 41.4687C31.7231 41.6208 31.6656 41.7728 31.6106 41.9273L31.4574 42.362C31.3569 42.6518 31.2588 42.9417 31.1654 43.2339C31.1604 43.2454 31.1564 43.2573 31.1535 43.2695C29.6701 47.8297 28.9017 52.5892 28.875 57.3811C28.875 57.6187 28.875 57.8372 28.875 58.0653C28.9204 64.6641 30.3705 71.1789 33.1304 77.1825L33.1663 77.2632C33.2716 77.5008 33.3817 77.7194 33.4894 77.9451C33.5612 78.0947 33.6306 78.242 33.7048 78.3893C33.755 78.4962 33.8101 78.6007 33.8627 78.7053C39.0533 89.0492 47.8983 97.1346 58.7105 101.419L58.8469 101.471C59.2618 101.63 59.6798 101.788 60.1011 101.947L60.551 102.106C60.7521 102.177 60.9555 102.248 61.1589 102.315C61.4868 102.424 61.8147 102.531 62.145 102.633L62.583 102.766C62.9204 102.866 63.2579 102.963 63.5977 103.058L63.849 103.127C64.2368 103.232 64.6293 103.332 65.0218 103.427L65.309 103.496C65.7159 103.591 66.1251 103.683 66.5344 103.769L66.6612 103.795C67.5803 103.985 68.5073 104.143 69.4423 104.27C71.9038 104.622 74.3894 104.78 76.8761 104.745L71.3211 93.9025C70.6749 93.8139 70.0367 93.7109 69.4064 93.5937L68.9948 93.5129L68.3749 93.3823L67.6353 93.2136L67.1016 93.0806C66.9197 93.0354 66.7402 92.9879 66.5607 92.938L66.0318 92.7907L65.7063 92.6981C65.1127 92.5223 64.5288 92.3298 63.952 92.1255H63.9376L63.8275 92.0851C63.5714 91.9949 63.3201 91.8998 63.0664 91.8024C62.784 91.6931 62.4992 91.5839 62.2192 91.4698H62.2048L62.1426 91.4437C61.5706 91.2061 61.0057 90.9543 60.4505 90.693L60.338 90.6384C59.845 90.4008 59.3615 90.1632 58.8828 89.9019L58.5023 89.6952C58.3156 89.593 58.1337 89.4838 57.9494 89.3792V89.3935L57.8848 89.3579L57.825 89.3222C57.2865 89.011 56.7623 88.6903 56.2454 88.3577L56.1401 88.2888C55.6821 87.9926 55.2338 87.687 54.795 87.3718L54.4456 87.1176C54.1009 86.8658 53.7627 86.6092 53.4308 86.3479C53.2321 86.1934 53.0359 86.0343 52.842 85.8727C52.6027 85.6755 52.3634 85.4784 52.136 85.2788C51.9086 85.0792 51.6094 84.8179 51.3534 84.5827L50.901 84.1622C50.5875 83.8653 50.2787 83.5659 49.9772 83.2595L49.7139 82.9886C49.3741 82.6347 49.039 82.2759 48.7135 81.9101C48.6632 81.8554 48.6154 81.7984 48.5675 81.7438C48.2205 81.3494 47.8806 80.9479 47.5527 80.5417L47.4546 80.4181C47.1219 80.0024 46.7988 79.5819 46.4972 79.1519L46.3848 78.9999C46.088 78.5865 45.7992 78.1676 45.5184 77.7431L45.3484 77.4842C45.0971 77.0969 44.8554 76.7073 44.6185 76.3129C44.5323 76.168 44.4485 76.0207 44.3624 75.8735C44.1685 75.5361 43.9794 75.1988 43.7952 74.8567C43.6755 74.6333 43.5558 74.4076 43.4457 74.182C43.3093 73.9135 43.1729 73.6451 43.0436 73.3742C42.8952 73.063 42.7517 72.7494 42.6128 72.4358C42.5267 72.2434 42.4429 72.051 42.3591 71.8585C42.1916 71.4626 42.0321 71.0666 41.8805 70.6707L41.744 70.312C41.5717 69.8368 41.4066 69.3617 41.2534 68.8866C41.2343 68.8248 41.2127 68.7654 41.1936 68.7036C41.034 68.1857 40.8801 67.6639 40.7317 67.138C40.7317 67.1119 40.7197 67.0858 40.7125 67.0597C40.5657 66.5164 40.4325 65.97 40.3128 65.4204C40.3077 65.4009 40.3037 65.381 40.3009 65.361C40.1828 64.8225 40.0783 64.2809 39.9873 63.7361C39.9873 63.6909 39.9706 63.6458 39.9634 63.6007C39.8804 63.0923 39.8078 62.5831 39.7456 62.0731C39.7312 61.9733 39.7193 61.8735 39.7097 61.7738C39.657 61.3247 39.6164 60.8757 39.5805 60.4244C39.5685 60.2414 39.5541 60.0585 39.5446 59.8732C39.5206 59.5073 39.5063 59.1415 39.4943 58.7756C39.4943 58.4858 39.4799 58.196 39.4775 57.9061C39.4752 57.6163 39.4775 57.3764 39.4775 57.1103C39.4775 56.7017 39.4991 56.293 39.5182 55.8844C39.5182 55.7276 39.5326 55.5732 39.5422 55.4093C39.5757 54.8842 39.6188 54.3545 39.6762 53.8271L39.6906 53.6726C39.76 53.0692 39.8389 52.4634 39.9299 51.8576C40.1261 50.646 40.3798 49.4582 40.691 48.2941C40.7029 48.2537 40.7125 48.2133 40.7221 48.1729C40.8465 47.6978 40.9877 47.2512 41.129 46.795C41.1792 46.6382 41.2223 46.4791 41.275 46.3199C41.3779 46.0063 41.4904 45.6998 41.6028 45.3886C41.7153 45.0774 41.8111 44.7947 41.9259 44.4977C41.993 44.3314 42.0624 44.1675 42.1294 43.9989C42.3041 43.5712 42.4812 43.1436 42.6727 42.7184L42.7516 42.5497C43.2479 41.468 43.7999 40.4013 44.4079 39.3496C44.4113 39.343 44.4153 39.3366 44.4198 39.3306C44.7214 38.8127 45.0349 38.3067 45.3556 37.8102C45.3987 37.7437 45.4442 37.6771 45.4896 37.6106C45.7641 37.1925 46.0473 36.7815 46.3393 36.3776C46.4446 36.228 46.5547 36.0831 46.6648 35.9358C46.8929 35.6301 47.1235 35.3284 47.3565 35.0306C47.5384 34.7931 47.7226 34.5745 47.9093 34.3512C48.0338 34.2015 48.1606 34.0542 48.2851 33.9093L58.3922 53.6275L58.4353 53.6109L84.2356 103.975C85.587 103.801 86.9271 103.55 88.2493 103.222L88.3498 103.194L88.4599 103.17C88.4982 103.17 88.5317 103.146 88.57 103.134L88.8931 103.044C89.1731 102.968 89.4483 102.892 89.7164 102.807L89.9557 102.731C90.128 102.678 90.3075 102.628 90.4775 102.574C91.4348 102.273 92.381 101.946 93.316 101.593C93.3171 101.6 93.3171 101.607 93.316 101.614C93.6032 101.505 93.8856 101.376 94.1704 101.267L94.6228 101.084C95.0703 100.897 95.5179 100.704 95.9606 100.505C96.1737 100.407 96.3843 100.312 96.5949 100.212C96.973 100.035 97.3504 99.8521 97.7269 99.6636C98.0046 99.5258 98.2774 99.3832 98.5479 99.2407C98.859 99.0768 99.1677 98.9129 99.4765 98.7418C99.7852 98.5708 100.041 98.4211 100.324 98.2667C100.46 98.1883 100.589 98.1028 100.723 98.0291L101.202 97.7393L101.81 97.3639C102.076 97.1953 102.339 97.0218 102.602 96.8484L102.901 96.6512C103.002 96.5847 103.102 96.5229 103.201 96.4564C103.615 96.1729 104.026 95.8831 104.433 95.5869L104.821 95.2995C105.28 94.9574 105.735 94.6058 106.185 94.2446L106.537 93.9572C106.977 93.5961 107.412 93.2263 107.841 92.8477L108.035 92.6814C108.193 92.5413 108.346 92.3987 108.514 92.2562C108.724 92.0614 108.937 91.8666 109.146 91.667C109.533 91.3012 109.911 90.9282 110.285 90.5505C110.366 90.4649 110.45 90.3842 110.524 90.2986C113.738 87.0005 116.446 83.2512 118.561 79.1709C118.717 78.8692 118.87 78.5651 119.018 78.2586C119.052 78.1874 119.088 78.1185 119.121 78.0472C119.231 77.8096 119.339 77.5887 119.447 77.3559L119.65 76.914C119.717 76.7643 119.782 76.6123 119.849 76.4626C119.947 76.225 120.045 76.0089 120.141 75.7808L120.227 75.5694C122.568 69.8875 123.765 63.8051 123.75 57.6662L113.157 57.6614ZM95.8362 88.7521C95.6399 88.8732 95.4389 88.9896 95.2402 89.1084C94.977 89.2676 94.7113 89.422 94.4409 89.5717C94.2183 89.6976 93.9957 89.8092 93.7707 89.9399C93.5458 90.0706 93.2586 90.2084 93.0001 90.339C92.7416 90.4697 92.5334 90.5766 92.2988 90.6859C92.0212 90.8189 91.7388 90.9448 91.454 91.0707C91.241 91.1658 91.028 91.2655 90.8125 91.3582C90.5014 91.4912 90.1807 91.6124 89.8552 91.7383L56.5876 26.7917C58.5356 25.5742 60.5941 24.5402 62.7361 23.7034L96.0037 88.6451L95.8362 88.7521Z" fill="#003399"/>
</g>
</svg>
