<svg width="96" height="94" viewBox="0 0 96 94" fill="none" xmlns="http://www.w3.org/2000/svg">
<path d="M85.1569 46.6614C85.1569 47.4755 85.1297 48.2904 85.0755 49.106C85.0492 49.5051 85.0205 49.9042 84.9798 50.2939C84.9654 50.4578 84.9463 50.6193 84.9271 50.7809C84.8792 51.2101 84.8242 51.6401 84.762 52.0709L84.6974 52.4771C84.6256 52.9237 84.5458 53.3704 84.458 53.817C84.4341 53.9405 84.4078 54.0546 84.3814 54.19C84.2881 54.6366 84.1876 55.0832 84.0751 55.5275C84.044 55.6582 84.0081 55.7864 83.9746 55.9171C83.8621 56.3471 83.7352 56.7747 83.6156 57.2024C83.5701 57.3544 83.5222 57.5064 83.472 57.6609C83.3475 58.0552 83.2183 58.4496 83.0795 58.8487C83.0124 59.0411 82.9406 59.2336 82.8688 59.426C82.7396 59.7705 82.608 60.1126 82.4691 60.4547C82.3686 60.6922 82.2633 60.9441 82.158 61.1888C82.0359 61.4715 81.9187 61.7518 81.7823 62.0321C81.6458 62.3125 81.4903 62.6427 81.3371 62.9468C81.2318 63.1606 81.1265 63.372 81.0164 63.5835C80.8217 63.9541 80.6207 64.3207 80.4133 64.6834C80.3319 64.8283 80.2505 64.9732 80.1739 65.1158C79.9346 65.5363 79.6689 65.952 79.4033 66.3678L79.2333 66.6338C78.9413 67.0805 78.635 67.5223 78.3191 67.9618L78.1922 68.1424C77.8763 68.5748 77.546 69.0024 77.2085 69.4253C77.1487 69.5013 77.0913 69.5773 77.0314 69.6628C76.816 69.9289 76.5959 70.1855 76.3733 70.4444L76.3469 70.4753L45.4272 10.0687C43.7966 6.79502 42.1659 3.52211 40.5352 0.25C39.5779 0.409171 38.5846 0.603975 37.5388 0.848671C37.0433 0.962704 36.5623 1.08624 36.1027 1.2074H36.0644H36.0381L35.9783 1.22166C35.447 1.3642 34.9324 1.51149 34.4394 1.66116C25.5296 4.35832 17.6201 9.60614 11.7025 16.7468C11.5805 16.8941 11.4632 17.0437 11.3316 17.1934L11.2885 17.248C8.27986 20.9686 5.86252 25.1243 4.12038 29.5707C4.12038 29.5921 4.10363 29.6111 4.09645 29.6325C3.98875 29.9105 3.88105 30.1884 3.77814 30.4687C3.72309 30.6208 3.66565 30.7728 3.6106 30.9273L3.45743 31.362C3.35691 31.6518 3.25878 31.9417 3.16544 32.2339C3.16038 32.2454 3.15637 32.2573 3.15347 32.2695C1.67012 36.8297 0.901663 41.5892 0.875 46.3811C0.875 46.6187 0.875 46.8372 0.875 47.0653C0.920368 53.6641 2.37053 60.1789 5.13038 66.1825L5.16628 66.2632C5.27158 66.5008 5.38168 66.7194 5.48938 66.9451C5.56118 67.0947 5.63059 67.242 5.70478 67.3893C5.75504 67.4962 5.81009 67.6007 5.86274 67.7053C11.0533 78.0492 19.8983 86.1346 30.7105 90.4192L30.8469 90.4715C31.2618 90.6299 31.6798 90.7882 32.1011 90.9466L32.551 91.1058C32.7521 91.1771 32.9555 91.2483 33.1589 91.3148C33.4868 91.4241 33.8147 91.531 34.145 91.6332L34.583 91.7662C34.9204 91.866 35.2579 91.9634 35.5977 92.0584L35.849 92.1273C36.2368 92.2319 36.6293 92.3316 37.0218 92.4267L37.309 92.4956C37.7159 92.5906 38.1251 92.6832 38.5344 92.7688L38.6612 92.7949C39.5803 92.985 40.5073 93.1433 41.4423 93.2701C43.9038 93.6216 46.3894 93.7805 48.8761 93.7452L43.3211 82.9025C42.6749 82.8139 42.0367 82.7109 41.4064 82.5937L40.9948 82.5129L40.3749 82.3823L39.6353 82.2136L39.1016 82.0806C38.9197 82.0354 38.7402 81.9879 38.5607 81.938L38.0318 81.7907L37.7063 81.6981C37.1127 81.5223 36.5288 81.3298 35.952 81.1255H35.9376L35.8275 81.0851C35.5714 80.9949 35.3201 80.8998 35.0664 80.8024C34.784 80.6931 34.4992 80.5839 34.2192 80.4698H34.2048L34.1426 80.4437C33.5706 80.2061 33.0057 79.9543 32.4505 79.693L32.338 79.6384C31.845 79.4008 31.3615 79.1632 30.8828 78.9019L30.5023 78.6952C30.3156 78.593 30.1337 78.4838 29.9494 78.3792V78.3935L29.8848 78.3579L29.825 78.3222C29.2865 78.011 28.7623 77.6903 28.2454 77.3577L28.1401 77.2888C27.6821 76.9926 27.2338 76.687 26.795 76.3718L26.4456 76.1176C26.1009 75.8658 25.7627 75.6092 25.4308 75.3479C25.2321 75.1934 25.0359 75.0343 24.842 74.8727C24.6027 74.6755 24.3634 74.4784 24.136 74.2788C23.9086 74.0792 23.6094 73.8179 23.3534 73.5827L22.901 73.1622C22.5875 72.8653 22.2787 72.5659 21.9772 72.2595L21.7139 71.9886C21.3741 71.6347 21.039 71.2759 20.7135 70.9101C20.6632 70.8554 20.6154 70.7984 20.5675 70.7438C20.2205 70.3494 19.8806 69.9479 19.5527 69.5417L19.4546 69.4181C19.1219 69.0024 18.7988 68.5819 18.4972 68.1519L18.3848 67.9999C18.088 67.5865 17.7992 67.1676 17.5184 66.7431L17.3484 66.4842C17.0971 66.0969 16.8554 65.7073 16.6185 65.3129C16.5323 65.168 16.4485 65.0207 16.3624 64.8735C16.1685 64.5361 15.9794 64.1988 15.7952 63.8567C15.6755 63.6333 15.5558 63.4076 15.4457 63.182C15.3093 62.9135 15.1729 62.6451 15.0436 62.3742C14.8952 62.063 14.7517 61.7494 14.6128 61.4358C14.5267 61.2434 14.4429 61.051 14.3591 60.8585C14.1916 60.4626 14.0321 60.0666 13.8805 59.6707L13.744 59.312C13.5717 58.8368 13.4066 58.3617 13.2534 57.8866C13.2343 57.8248 13.2127 57.7654 13.1936 57.7036C13.034 57.1857 12.8801 56.6639 12.7317 56.138C12.7317 56.1119 12.7197 56.0858 12.7125 56.0597C12.5657 55.5164 12.4325 54.97 12.3128 54.4204C12.3077 54.4009 12.3037 54.381 12.3009 54.361C12.1828 53.8225 12.0783 53.2809 11.9873 52.7361C11.9873 52.6909 11.9706 52.6458 11.9634 52.6007C11.8804 52.0923 11.8078 51.5831 11.7456 51.0731C11.7312 50.9733 11.7193 50.8735 11.7097 50.7738C11.657 50.3247 11.6164 49.8757 11.5805 49.4244C11.5685 49.2414 11.5541 49.0585 11.5446 48.8732C11.5206 48.5073 11.5063 48.1415 11.4943 47.7756C11.4943 47.4858 11.4799 47.196 11.4775 46.9061C11.4752 46.6163 11.4775 46.3764 11.4775 46.1103C11.4775 45.7017 11.4991 45.293 11.5182 44.8844C11.5182 44.7276 11.5326 44.5732 11.5422 44.4093C11.5757 43.8842 11.6188 43.3545 11.6762 42.8271L11.6906 42.6726C11.76 42.0692 11.8389 41.4634 11.9299 40.8576C12.1261 39.646 12.3798 38.4582 12.691 37.2941C12.7029 37.2537 12.7125 37.2133 12.7221 37.1729C12.8465 36.6978 12.9877 36.2512 13.129 35.795C13.1792 35.6382 13.2223 35.4791 13.275 35.3199C13.3779 35.0063 13.4904 34.6998 13.6028 34.3886C13.7153 34.0774 13.8111 33.7947 13.9259 33.4977C13.993 33.3314 14.0624 33.1675 14.1294 32.9989C14.3041 32.5712 14.4812 32.1436 14.6727 31.7184L14.7516 31.5497C15.2479 30.468 15.7999 29.4013 16.4079 28.3496C16.4113 28.343 16.4153 28.3366 16.4198 28.3306C16.7214 27.8127 17.0349 27.3067 17.3556 26.8102C17.3987 26.7437 17.4442 26.6771 17.4896 26.6106C17.7641 26.1925 18.0473 25.7815 18.3393 25.3776C18.4446 25.228 18.5547 25.0831 18.6648 24.9358C18.8929 24.6301 19.1235 24.3284 19.3565 24.0306C19.5384 23.7931 19.7226 23.5745 19.9093 23.3512C20.0338 23.2015 20.1606 23.0542 20.2851 22.9093L30.3922 42.6275L30.4353 42.6109L56.2356 92.9754C57.587 92.8013 58.9271 92.5498 60.2493 92.2224L60.3498 92.1939L60.4599 92.1701C60.4982 92.1701 60.5317 92.1463 60.57 92.1345L60.8931 92.0442C61.1731 91.9682 61.4483 91.8921 61.7164 91.8066L61.9557 91.7306C62.128 91.6783 62.3075 91.6284 62.4775 91.5738C63.4348 91.2729 64.381 90.9458 65.316 90.5926C65.3171 90.5997 65.3171 90.6069 65.316 90.614C65.6032 90.5047 65.8856 90.3765 66.1704 90.2672L66.6228 90.0842C67.0703 89.8966 67.5179 89.7041 67.9606 89.5046C68.1737 89.4072 68.3843 89.3121 68.5949 89.2124C68.973 89.035 69.3504 88.8521 69.7269 88.6636C70.0046 88.5258 70.2774 88.3832 70.5479 88.2407C70.859 88.0768 71.1677 87.9129 71.4765 87.7418C71.7852 87.5708 72.0413 87.4211 72.3237 87.2667C72.4601 87.1883 72.5894 87.1028 72.7234 87.0291L73.2021 86.7393L73.81 86.3639C74.0757 86.1953 74.3389 86.0218 74.6022 85.8484L74.9014 85.6512C75.0019 85.5847 75.1024 85.5229 75.2005 85.4564C75.6154 85.1729 76.0262 84.8831 76.4331 84.5869L76.8208 84.2995C77.2803 83.9574 77.7351 83.6058 78.185 83.2446L78.5369 82.9572C78.9772 82.5961 79.412 82.2263 79.8412 81.8477L80.0351 81.6814C80.1931 81.5413 80.3462 81.3987 80.5138 81.2562C80.7244 81.0614 80.9374 80.8666 81.1456 80.667C81.5333 80.3012 81.9115 79.9282 82.2849 79.5505C82.3662 79.4649 82.45 79.3842 82.5242 79.2986C85.7382 76.0005 88.4462 72.2512 90.5611 68.1709C90.7166 67.8692 90.8698 67.5651 91.0182 67.2586C91.0517 67.1874 91.0876 67.1185 91.1211 67.0472C91.2312 66.8096 91.3389 66.5887 91.4466 66.3559L91.65 65.914C91.7171 65.7643 91.7817 65.6123 91.8487 65.4626C91.9468 65.225 92.0449 65.0089 92.1407 64.7808L92.2268 64.5694C94.5684 58.8875 95.7653 52.8051 95.7499 46.6662L85.1569 46.6614ZM67.8362 77.7521C67.6399 77.8732 67.4389 77.9896 67.2402 78.1084C66.977 78.2676 66.7113 78.422 66.4409 78.5717C66.2183 78.6976 65.9957 78.8092 65.7707 78.9399C65.5458 79.0706 65.2586 79.2084 65.0001 79.339C64.7416 79.4697 64.5334 79.5766 64.2988 79.6859C64.0212 79.8189 63.7388 79.9448 63.454 80.0707C63.241 80.1658 63.028 80.2655 62.8125 80.3582C62.5014 80.4912 62.1807 80.6124 61.8552 80.7383L28.5876 15.7917C30.5356 14.5742 32.5941 13.5402 34.7361 12.7034L68.0037 77.6451L67.8362 77.7521Z" fill="#003399"/>
</svg>
