<svg width="428" height="472" viewBox="0 0 428 472" fill="none" xmlns="http://www.w3.org/2000/svg">
<path d="M374.63 234.041C374.63 238.142 374.493 242.247 374.22 246.357C374.087 248.368 373.942 250.379 373.737 252.342C373.665 253.167 373.569 253.981 373.472 254.795C373.231 256.958 372.954 259.124 372.64 261.294L372.315 263.341C371.953 265.591 371.551 267.842 371.109 270.092C370.988 270.714 370.855 271.289 370.723 271.971C370.253 274.221 369.746 276.471 369.179 278.71C369.023 279.368 368.842 280.014 368.673 280.673C368.106 282.839 367.467 284.994 366.864 287.148C366.635 287.914 366.394 288.68 366.141 289.458C365.514 291.445 364.863 293.432 364.163 295.443C363.826 296.412 363.464 297.382 363.102 298.351C362.451 300.087 361.788 301.81 361.088 303.534C360.582 304.731 360.051 305.999 359.521 307.232C358.906 308.657 358.315 310.069 357.628 311.481C356.94 312.894 356.156 314.557 355.385 316.09C354.854 317.167 354.324 318.232 353.769 319.297C352.788 321.164 351.775 323.012 350.73 324.839C350.32 325.569 349.91 326.299 349.524 327.017C348.319 329.136 346.98 331.231 345.642 333.325L344.786 334.666C343.315 336.916 341.771 339.142 340.179 341.357L339.54 342.266C337.949 344.445 336.285 346.599 334.584 348.73C334.283 349.113 333.993 349.496 333.692 349.927C332.607 351.267 331.497 352.56 330.376 353.864L330.243 354.02L174.463 49.6789C166.248 33.1853 158.032 16.6957 149.816 0.210144C144.993 1.01208 139.989 1.99354 134.72 3.22637C132.224 3.80089 129.8 4.4233 127.485 5.03373H127.292H127.159L126.858 5.10555C124.181 5.8237 121.588 6.5658 119.104 7.31986C74.2149 20.9087 34.3654 47.3483 4.5513 83.3243C3.93634 84.0664 3.3455 84.8205 2.6823 85.5745L2.46522 85.8498C-12.6928 104.595 -24.8718 125.532 -33.6491 147.934C-33.6491 148.042 -33.7335 148.138 -33.7697 148.245C-34.3123 149.646 -34.8549 151.046 -35.3734 152.458C-35.6507 153.224 -35.9401 153.991 -36.2175 154.769L-36.9892 156.959C-37.4956 158.419 -37.99 159.879 -38.4603 161.352C-38.4858 161.41 -38.506 161.47 -38.5206 161.531C-45.994 184.506 -49.8657 208.485 -50 232.628C-50 233.825 -50 234.926 -50 236.075C-49.7714 269.322 -42.4652 302.145 -28.5605 332.392L-28.3796 332.798C-27.8491 333.995 -27.2944 335.097 -26.7518 336.234C-26.39 336.988 -26.0404 337.73 -25.6666 338.472C-25.4133 339.011 -25.136 339.537 -24.8707 340.064C1.28043 392.179 45.8433 432.915 100.318 454.501L101.005 454.765C103.095 455.563 105.201 456.361 107.323 457.159L109.59 457.961C110.603 458.32 111.628 458.679 112.653 459.014C114.305 459.564 115.957 460.103 117.621 460.618L119.828 461.288C121.528 461.791 123.228 462.281 124.94 462.76L126.207 463.107C128.16 463.634 130.138 464.137 132.115 464.615L133.562 464.963C135.612 465.441 137.674 465.908 139.736 466.339L140.375 466.471C145.005 467.428 149.676 468.226 154.387 468.865C166.788 470.636 179.311 471.436 191.839 471.258L163.852 416.631C160.597 416.184 157.381 415.665 154.206 415.075L152.132 414.668L149.009 414.01L145.283 413.16L142.594 412.49C141.677 412.262 140.773 412.023 139.868 411.771L137.204 411.029L135.564 410.562C132.573 409.677 129.631 408.707 126.725 407.678H126.653L126.098 407.474C124.808 407.02 123.542 406.541 122.263 406.05C120.841 405.499 119.406 404.949 117.995 404.374H117.923L117.609 404.243C114.727 403.046 111.881 401.777 109.084 400.46L108.517 400.185C106.033 398.988 103.597 397.791 101.186 396.475L99.2685 395.433C98.328 394.919 97.4115 394.368 96.483 393.841V393.913L96.1575 393.734L95.856 393.554C93.1429 391.986 90.5022 390.37 87.8976 388.695L87.3671 388.348C85.0599 386.855 82.801 385.315 80.5903 383.728L78.8298 382.447C77.0935 381.178 75.3893 379.885 73.7172 378.569C72.7164 377.791 71.7276 376.989 70.7508 376.175C69.545 375.182 68.3392 374.188 67.1937 373.183C66.0482 372.177 64.5409 370.861 63.2506 369.676L60.9717 367.557C59.392 366.061 57.8365 364.553 56.3172 363.009L54.9908 361.644C53.2785 359.861 51.5904 358.054 49.9504 356.21C49.6972 355.935 49.4561 355.648 49.2149 355.372C47.4665 353.386 45.7542 351.363 44.1022 349.316L43.6078 348.694C41.9318 346.599 40.3039 344.48 38.7846 342.314L38.2178 341.548C36.7226 339.465 35.2676 337.355 33.8528 335.216L32.9966 333.912C31.7305 331.961 30.5126 329.998 29.3189 328.011C28.8848 327.281 28.4627 326.539 28.0286 325.797C27.0519 324.097 26.0993 322.397 25.1708 320.674C24.5679 319.549 23.965 318.412 23.4104 317.274C22.723 315.922 22.0357 314.569 21.3845 313.205C20.6369 311.637 19.9135 310.057 19.2141 308.477C18.78 307.508 18.358 306.538 17.9359 305.569C17.0918 303.574 16.288 301.579 15.5243 299.584L14.837 297.777C13.9688 295.383 13.1368 292.989 12.365 290.595C12.2686 290.284 12.16 289.985 12.0636 289.673C11.2597 287.064 10.484 284.435 9.73635 281.786C9.73635 281.654 9.67604 281.522 9.63987 281.391C8.9003 278.654 8.22908 275.901 7.62617 273.132C7.60029 273.034 7.58014 272.934 7.56586 272.833C6.97099 270.12 6.44445 267.391 5.98623 264.646C5.98623 264.418 5.90182 264.191 5.86565 263.964C5.44763 261.402 5.08186 258.837 4.76834 256.267C4.696 255.765 4.63571 255.262 4.58748 254.759C4.3222 252.497 4.1172 250.235 3.93633 247.961C3.87603 247.039 3.80369 246.118 3.75546 245.184C3.63488 243.341 3.56254 241.497 3.50225 239.654C3.50225 238.194 3.42989 236.734 3.41783 235.273C3.40577 233.813 3.41783 232.604 3.41783 231.264C3.41783 229.205 3.52637 227.146 3.62284 225.088C3.62284 224.298 3.69519 223.52 3.74343 222.694C3.91224 220.049 4.12928 217.379 4.41868 214.722L4.49103 213.944C4.84072 210.904 5.23864 207.852 5.69685 204.8C6.68562 198.696 7.96378 192.711 9.53135 186.846C9.59164 186.643 9.63988 186.439 9.68811 186.236C10.3151 183.842 11.0266 181.592 11.738 179.293C11.9912 178.503 12.2083 177.702 12.4736 176.9C12.9921 175.32 13.5588 173.776 14.1255 172.208C14.6923 170.64 15.1746 169.215 15.7534 167.719C16.091 166.881 16.4407 166.056 16.7783 165.206C17.6586 163.051 18.5509 160.897 19.5155 158.754L19.9134 157.904C22.4135 152.454 25.195 147.08 28.2577 141.782C28.2751 141.748 28.2952 141.716 28.318 141.686C29.8373 139.077 31.417 136.527 33.0328 134.026C33.2498 133.691 33.4789 133.356 33.708 133.02C35.0907 130.914 36.5176 128.843 37.9887 126.808C38.5193 126.054 39.0739 125.324 39.6286 124.582C40.7782 123.042 41.9398 121.522 43.1135 120.022C44.0299 118.825 44.9584 117.724 45.8989 116.599C46.5259 115.845 47.165 115.103 47.792 114.372L98.7138 213.717L98.9309 213.633L228.918 467.38C235.727 466.503 242.479 465.236 249.14 463.586L249.646 463.442L250.201 463.323C250.394 463.323 250.563 463.203 250.756 463.143L252.384 462.688C253.794 462.305 255.181 461.922 256.532 461.491L257.737 461.108C258.606 460.845 259.51 460.594 260.366 460.319C265.189 458.802 269.956 457.155 274.667 455.375C274.673 455.411 274.673 455.447 274.667 455.483C276.114 454.932 277.537 454.286 278.972 453.735L281.251 452.814C283.506 451.868 285.761 450.899 287.991 449.893C289.065 449.403 290.126 448.924 291.187 448.421C293.092 447.527 294.993 446.606 296.89 445.656C298.289 444.962 299.664 444.244 301.026 443.526C302.594 442.7 304.149 441.874 305.705 441.012C307.26 440.15 308.551 439.396 309.974 438.618C310.661 438.223 311.312 437.792 311.987 437.421L314.399 435.961L317.462 434.07C318.8 433.22 320.127 432.346 321.453 431.473L322.96 430.479C323.467 430.144 323.973 429.833 324.468 429.498C326.558 428.069 328.628 426.609 330.677 425.117L332.631 423.669C334.946 421.945 337.237 420.174 339.504 418.354L341.277 416.906C343.495 415.087 345.686 413.224 347.848 411.317L348.825 410.479C349.621 409.773 350.393 409.054 351.237 408.336C352.298 407.355 353.371 406.373 354.42 405.368C356.374 403.525 358.279 401.645 360.16 399.742C360.57 399.311 360.992 398.905 361.366 398.474C377.559 381.857 391.202 362.967 401.857 342.41C402.641 340.89 403.413 339.358 404.16 337.814C404.329 337.455 404.51 337.107 404.679 336.748C405.233 335.551 405.776 334.438 406.319 333.265L407.344 331.039C407.681 330.285 408.007 329.519 408.344 328.765C408.839 327.568 409.333 326.479 409.815 325.33L410.25 324.265C422.047 295.638 428.077 264.994 427.999 234.065L374.63 234.041ZM287.364 390.682C286.376 391.292 285.363 391.879 284.362 392.477C283.036 393.279 281.697 394.057 280.334 394.811C279.213 395.445 278.092 396.008 276.958 396.666C275.825 397.325 274.378 398.019 273.076 398.677C271.773 399.335 270.724 399.874 269.542 400.425C268.144 401.095 266.721 401.729 265.286 402.364C264.213 402.842 263.14 403.345 262.054 403.812C260.487 404.482 258.871 405.093 257.231 405.727L89.622 78.5127C99.4362 72.3782 109.807 67.1688 120.599 62.9527L288.209 390.143L287.364 390.682Z" fill="#003192"/>
</svg>
