<svg width="24" height="25" viewBox="0 0 24 25" fill="none" xmlns="http://www.w3.org/2000/svg">
<path d="M11 20.1372C10.4477 20.1372 10 20.5849 10 21.1372C10 21.6895 10.4477 22.1372 11 22.1372V20.1372ZM15.908 20.9192L15.454 20.0282L15.454 20.0282L15.908 20.9192ZM16.782 20.0452L17.673 20.4992V20.4992L16.782 20.0452ZM15.908 3.35519L15.454 4.2462L15.454 4.2462L15.908 3.35519ZM16.782 4.22923L15.891 4.68322V4.68322L16.782 4.22923ZM4.09202 3.35519L3.63803 2.46419L3.63803 2.46419L4.09202 3.35519ZM2.32698 3.77524C2.07625 4.26732 2.27191 4.8695 2.764 5.12023C3.25609 5.37096 3.85826 5.17531 4.10899 4.68322L2.32698 3.77524ZM17.979 19.1982C18.0126 18.6469 17.593 18.1727 17.0418 18.1391C16.4905 18.1054 16.0163 18.525 15.9827 19.0763L17.979 19.1982ZM15.9827 5.19815C16.0163 5.74941 16.4905 6.16901 17.0418 6.13535C17.593 6.10169 18.0126 5.62752 17.979 5.07626L15.9827 5.19815ZM16 11.1372C15.4477 11.1372 15 11.5849 15 12.1372C15 12.6895 15.4477 13.1372 16 13.1372V11.1372ZM20 13.1372C20.5523 13.1372 21 12.6895 21 12.1372C21 11.5849 20.5523 11.1372 20 11.1372V13.1372ZM19.8321 8.58251C19.5257 8.12298 18.9048 7.9988 18.4453 8.30516C17.9858 8.61151 17.8616 9.23238 18.1679 9.69191L19.8321 8.58251ZM20.8151 11.8599L19.983 12.4146L20.8151 11.8599ZM20.8151 12.4146L19.983 11.8599L20.8151 12.4146ZM18.1679 14.5825C17.8616 15.042 17.9858 15.6629 18.4453 15.9693C18.9048 16.2756 19.5257 16.1514 19.8321 15.6919L18.1679 14.5825ZM5.7313 3.27664L5.36789 4.20827L5.7313 3.27664ZM9.73131 4.837L10.0947 3.90537L9.73131 4.837ZM8.26869 21.9978L7.90528 22.9294L8.26869 21.9978ZM4.26869 20.4374L3.90528 21.369L3.90528 21.369L4.26869 20.4374ZM6.2 4.13721H13.8V2.13721H6.2V4.13721ZM13.8 20.1372H11V22.1372H13.8V20.1372ZM13.8 22.1372C14.3436 22.1372 14.8114 22.138 15.195 22.1066C15.5904 22.0743 15.9836 22.003 16.362 21.8102L15.454 20.0282C15.4045 20.0534 15.3038 20.0911 15.0322 20.1133C14.7488 20.1364 14.3766 20.1372 13.8 20.1372V22.1372ZM15.891 19.5912C15.7951 19.7794 15.6422 19.9323 15.454 20.0282L16.362 21.8102C16.9265 21.5226 17.3854 21.0637 17.673 20.4992L15.891 19.5912ZM13.8 4.13721C14.3766 4.13721 14.7488 4.13798 15.0322 4.16113C15.3038 4.18333 15.4045 4.22101 15.454 4.2462L16.362 2.46419C15.9836 2.27139 15.5904 2.20008 15.195 2.16778C14.8114 2.13643 14.3436 2.13721 13.8 2.13721V4.13721ZM15.454 4.2462C15.6422 4.34207 15.7951 4.49505 15.891 4.68322L17.673 3.77524C17.3854 3.21075 16.9265 2.75181 16.362 2.46419L15.454 4.2462ZM6.2 2.13721C5.65645 2.13721 5.18864 2.13643 4.80497 2.16778C4.40963 2.20008 4.01641 2.27139 3.63803 2.46419L4.54601 4.2462C4.59545 4.22101 4.69617 4.18333 4.96784 4.16113C5.25117 4.13798 5.62345 4.13721 6.2 4.13721V2.13721ZM4.10899 4.68322C4.20487 4.49505 4.35785 4.34207 4.54601 4.2462L3.63803 2.46419C3.07354 2.75181 2.6146 3.21075 2.32698 3.77524L4.10899 4.68322ZM15.9827 19.0763C15.9618 19.4183 15.9196 19.535 15.891 19.5912L17.673 20.4992C17.8864 20.0804 17.9519 19.6405 17.979 19.1982L15.9827 19.0763ZM17.979 5.07626C17.9519 4.63388 17.8864 4.19404 17.673 3.77524L15.891 4.68322C15.9196 4.73943 15.9618 4.85611 15.9827 5.19815L17.979 5.07626ZM16 13.1372H20V11.1372H16V13.1372ZM18.1679 9.69191L19.983 12.4146L21.6472 11.3052L19.8321 8.58251L18.1679 9.69191ZM19.983 11.8599L18.1679 14.5825L19.8321 15.6919L21.6472 12.9693L19.983 11.8599ZM19.983 12.4146C19.8711 12.2466 19.8711 12.0278 19.983 11.8599L21.6472 12.9693C21.983 12.4654 21.983 11.809 21.6472 11.3052L19.983 12.4146ZM5.36789 4.20827L9.36789 5.76862L10.0947 3.90537L6.09472 2.34501L5.36789 4.20827ZM10 6.68538V20.1494H12V6.68538H10ZM8.63211 21.0661L4.63211 19.5058L3.90528 21.369L7.90528 22.9294L8.63211 21.0661ZM4 18.589V5.12503H2V18.589H4ZM4.63211 19.5058C4.24745 19.3557 4 18.9901 4 18.589H2C2 19.821 2.7592 20.922 3.90528 21.369L4.63211 19.5058ZM10 20.1494C10 20.8347 9.29836 21.326 8.63211 21.0661L7.90528 22.9294C9.86312 23.6931 12 22.2635 12 20.1494H10ZM9.36789 5.76862C9.75255 5.91868 10 6.28427 10 6.68538H12C12 5.45345 11.2408 4.35244 10.0947 3.90537L9.36789 5.76862ZM6.09472 2.34501C4.13688 1.58128 2 3.01091 2 5.12503H4C4 4.43969 4.70164 3.94837 5.36789 4.20827L6.09472 2.34501Z" fill="#DE0000"/>
</svg>
