<svg width="57" height="57" viewBox="0 0 57 57" fill="none" xmlns="http://www.w3.org/2000/svg">
<path d="M49.8654 28.2999C49.8654 28.781 49.8494 29.2625 49.8173 29.7445C49.8018 29.9803 49.7848 30.2161 49.7608 30.4464C49.7523 30.5432 49.741 30.6387 49.7297 30.7341C49.7014 30.9878 49.6688 31.2419 49.6321 31.4964L49.5939 31.7365C49.5515 32.0004 49.5043 32.2643 49.4525 32.5282C49.4383 32.6012 49.4228 32.6686 49.4072 32.7486C49.3521 33.0125 49.2927 33.2765 49.2262 33.539C49.2078 33.6162 49.1866 33.692 49.1668 33.7692C49.1003 34.0233 49.0254 34.276 48.9546 34.5287C48.9278 34.6185 48.8995 34.7084 48.8698 34.7996C48.7963 35.0326 48.7199 35.2657 48.6379 35.5015C48.5983 35.6152 48.5558 35.7289 48.5134 35.8426C48.437 36.0462 48.3592 36.2483 48.2772 36.4505C48.2178 36.5909 48.1556 36.7397 48.0934 36.8843C48.0212 37.0513 47.9519 37.217 47.8713 37.3826C47.7907 37.5483 47.6988 37.7434 47.6083 37.9231C47.5461 38.0494 47.4838 38.1744 47.4188 38.2993C47.3037 38.5183 47.1849 38.735 47.0624 38.9493C47.0143 39.0349 46.9662 39.1205 46.921 39.2048C46.7795 39.4533 46.6225 39.6989 46.4656 39.9446L46.3652 40.1018C46.1926 40.3657 46.0116 40.6268 45.8249 40.8865L45.75 40.9932C45.5633 41.2487 45.3681 41.5014 45.1687 41.7513C45.1333 41.7962 45.0994 41.8411 45.064 41.8917C44.9368 42.0489 44.8066 42.2005 44.6751 42.3535L44.6596 42.3718L26.3888 6.67697C25.4252 4.74251 24.4617 2.80852 23.4981 0.875C22.9324 0.969056 22.3455 1.08417 21.7274 1.22876C21.4347 1.29614 21.1504 1.36914 20.8789 1.44074H20.8563H20.8407L20.8053 1.44916C20.4914 1.53339 20.1873 1.62043 19.896 1.70887C14.6311 3.30264 9.95734 6.40363 6.46058 10.6231C6.38845 10.7101 6.31916 10.7986 6.24137 10.887L6.21591 10.9193C4.4381 13.1178 3.00967 15.5734 1.98023 18.2009C1.98023 18.2135 1.97033 18.2248 1.96608 18.2374C1.90244 18.4016 1.8388 18.5659 1.77799 18.7315C1.74546 18.8214 1.71152 18.9112 1.67899 19.0025L1.58848 19.2594C1.52908 19.4306 1.4711 19.6019 1.41594 19.7746C1.41295 19.7814 1.41058 19.7884 1.40887 19.7956C0.532344 22.4903 0.0782556 25.3027 0.0625 28.1343C0.0625 28.2747 0.0625 28.4038 0.0625 28.5386C0.0893085 32.4379 0.946221 36.2876 2.57704 39.8351L2.59826 39.8828C2.66048 40.0232 2.72554 40.1524 2.78918 40.2857C2.83161 40.3742 2.87262 40.4612 2.91646 40.5482C2.94616 40.6114 2.97869 40.6732 3.0098 40.7349C6.07695 46.8473 11.3035 51.625 17.6926 54.1568L17.7732 54.1877C18.0183 54.2813 18.2654 54.3749 18.5143 54.4685L18.7801 54.5625C18.8989 54.6046 19.0191 54.6467 19.1394 54.686C19.3331 54.7506 19.5269 54.8138 19.722 54.8742L19.9808 54.9528C20.1803 55.0117 20.3797 55.0693 20.5805 55.1254L20.729 55.1662C20.9581 55.2279 21.19 55.2869 21.422 55.343L21.5917 55.3837C21.8321 55.4399 22.0739 55.4946 22.3158 55.5452L22.3907 55.5606C22.9338 55.6729 23.4816 55.7665 24.0341 55.8414C25.4886 56.0491 26.9574 56.143 28.4268 56.1222L25.1443 49.7151C24.7624 49.6627 24.3853 49.6019 24.0129 49.5326L23.7696 49.4849L23.4033 49.4077L22.9663 49.308L22.651 49.2294C22.5435 49.2027 22.4374 49.1747 22.3313 49.1452L22.0188 49.0582L21.8264 49.0034C21.4757 48.8995 21.1306 48.7858 20.7898 48.6651H20.7813L20.7163 48.6412C20.5649 48.5879 20.4164 48.5317 20.2665 48.4742C20.0996 48.4096 19.9313 48.345 19.7659 48.2776H19.7574L19.7206 48.2622C19.3826 48.1218 19.0488 47.973 18.7207 47.8186L18.6543 47.7863C18.3629 47.6459 18.0773 47.5055 17.7944 47.3511L17.5695 47.229C17.4592 47.1686 17.3517 47.104 17.2428 47.0423V47.0507L17.2047 47.0296L17.1693 47.0086C16.8511 46.8247 16.5414 46.6352 16.2359 46.4386L16.1737 46.3979C15.9031 46.2229 15.6381 46.0423 15.3789 45.8561L15.1724 45.7058C14.9687 45.557 14.7688 45.4054 14.5727 45.251C14.4554 45.1598 14.3394 45.0657 14.2248 44.9702C14.0834 44.8537 13.942 44.7372 13.8076 44.6193C13.6733 44.5014 13.4965 44.347 13.3452 44.208L13.0779 43.9595C12.8926 43.784 12.7102 43.6071 12.532 43.426L12.3764 43.266C12.1756 43.0568 11.9776 42.8449 11.7852 42.6287C11.7555 42.5964 11.7273 42.5627 11.699 42.5304C11.4939 42.2974 11.2931 42.0601 11.0993 41.8201L11.0413 41.7471C10.8448 41.5014 10.6538 41.2529 10.4756 40.9988L10.4092 40.909C10.2338 40.6647 10.0632 40.4172 9.89722 40.1664L9.7968 40.0134C9.64831 39.7845 9.50547 39.5543 9.36546 39.3213C9.31454 39.2357 9.26505 39.1486 9.21413 39.0616C9.09958 38.8622 8.98785 38.6629 8.87895 38.4608C8.80824 38.3288 8.73753 38.1954 8.67247 38.0621C8.59186 37.9034 8.51125 37.7448 8.43488 37.5848C8.34719 37.4009 8.26234 37.2156 8.18031 37.0303C8.1294 36.9166 8.0799 36.8028 8.0304 36.6891C7.9314 36.4552 7.83712 36.2212 7.74755 35.9872L7.66694 35.7753C7.56511 35.4945 7.46753 35.2137 7.37702 34.933C7.3657 34.8965 7.35298 34.8614 7.34166 34.8249C7.24738 34.5188 7.1564 34.2105 7.06871 33.8997C7.06871 33.8843 7.06164 33.8689 7.0574 33.8534C6.97065 33.5324 6.89193 33.2095 6.82122 32.8848C6.81818 32.8732 6.81582 32.8615 6.81414 32.8497C6.74437 32.5315 6.68262 32.2114 6.62888 31.8895C6.62888 31.8628 6.61898 31.8361 6.61473 31.8095C6.56571 31.5091 6.52281 31.2082 6.48604 30.9068C6.47755 30.8479 6.47048 30.7889 6.46482 30.7299C6.43371 30.4646 6.40967 30.1993 6.38845 29.9326C6.38138 29.8245 6.3729 29.7164 6.36724 29.6069C6.3531 29.3907 6.34461 29.1745 6.33754 28.9583C6.33754 28.7871 6.32905 28.6158 6.32764 28.4445C6.32623 28.2733 6.32764 28.1315 6.32764 27.9743C6.32764 27.7328 6.34037 27.4913 6.35168 27.2499C6.35168 27.1572 6.36017 27.066 6.36583 26.9691C6.38563 26.6589 6.41108 26.3458 6.44503 26.0342L6.45351 25.9429C6.49452 25.5864 6.54119 25.2284 6.59494 24.8704C6.71091 24.1545 6.86081 23.4526 7.04467 22.7647C7.05174 22.7408 7.0574 22.717 7.06305 22.6931C7.13659 22.4123 7.22003 22.1484 7.30347 21.8789C7.33317 21.7862 7.35863 21.6922 7.38975 21.5981C7.45056 21.4128 7.51703 21.2317 7.5835 21.0478C7.64997 20.8639 7.70654 20.6969 7.77442 20.5214C7.81402 20.4231 7.85504 20.3263 7.89464 20.2266C7.99788 19.9739 8.10253 19.7212 8.21567 19.4699L8.26234 19.3703C8.55556 18.7311 8.88178 18.1007 9.241 17.4793C9.24304 17.4754 9.2454 17.4716 9.24807 17.4681C9.42627 17.1621 9.61154 16.8631 9.80105 16.5697C9.8265 16.5303 9.85337 16.491 9.88024 16.4517C10.0424 16.2047 10.2098 15.9618 10.3823 15.7232C10.4445 15.6347 10.5096 15.5491 10.5746 15.462C10.7095 15.2814 10.8457 15.1031 10.9834 14.9272C11.0908 14.7868 11.1997 14.6577 11.3101 14.5257C11.3836 14.4373 11.4586 14.3502 11.5321 14.2646L17.5045 25.9163L17.5299 25.9064L32.7756 55.6673C33.5741 55.5644 34.366 55.4158 35.1473 55.2223L35.2067 55.2055L35.2717 55.1914C35.2944 55.1914 35.3142 55.1774 35.3368 55.1704L35.5277 55.117C35.6932 55.0721 35.8558 55.0272 36.0142 54.9766L36.1557 54.9317C36.2575 54.9008 36.3636 54.8714 36.464 54.8391C37.0297 54.6612 37.5888 54.468 38.1413 54.2593C38.1419 54.2635 38.1419 54.2677 38.1413 54.2719C38.311 54.2073 38.4779 54.1315 38.6462 54.067L38.9134 53.9589C39.1779 53.848 39.4424 53.7343 39.704 53.6163C39.8299 53.5588 39.9543 53.5026 40.0788 53.4437C40.3022 53.3389 40.5252 53.2308 40.7477 53.1194C40.9118 53.038 41.073 52.9537 41.2328 52.8695C41.4167 52.7726 41.5991 52.6758 41.7816 52.5747C41.964 52.4736 42.1153 52.3852 42.2822 52.2939C42.3628 52.2476 42.4392 52.1971 42.5184 52.1536L42.8012 51.9823L43.1605 51.7605C43.3174 51.6608 43.473 51.5583 43.6286 51.4559L43.8054 51.3394C43.8648 51.3 43.9242 51.2635 43.9821 51.2242C44.2273 51.0567 44.4701 50.8854 44.7105 50.7104L44.9396 50.5406C45.2111 50.3384 45.4798 50.1307 45.7457 49.9173L45.9536 49.7474C46.2138 49.534 46.4707 49.3155 46.7244 49.0918L46.8389 48.9936C46.9323 48.9108 47.0228 48.8265 47.1218 48.7423C47.2462 48.6272 47.3721 48.5121 47.4951 48.3941C47.7242 48.178 47.9477 47.9576 48.1683 47.7344C48.2164 47.6838 48.2659 47.6361 48.3097 47.5856C50.209 45.6367 51.8091 43.4211 53.0588 41.0101C53.1507 40.8318 53.2412 40.6521 53.3289 40.471C53.3487 40.4289 53.3699 40.3882 53.3897 40.3461C53.4548 40.2057 53.5184 40.0751 53.5821 39.9376L53.7023 39.6765C53.7419 39.588 53.7801 39.4982 53.8197 39.4097C53.8777 39.2693 53.9356 39.1416 53.9922 39.0068L54.0431 38.8819C55.4268 35.5244 56.1341 31.9303 56.1249 28.3027L49.8654 28.2999ZM39.6305 46.6717C39.5145 46.7433 39.3957 46.812 39.2783 46.8822C39.1228 46.9763 38.9658 47.0675 38.806 47.156C38.6744 47.2304 38.5429 47.2964 38.41 47.3736C38.277 47.4508 38.1073 47.5322 37.9546 47.6094C37.8019 47.6866 37.6788 47.7498 37.5402 47.8144C37.3762 47.893 37.2093 47.9674 37.041 48.0418C36.9151 48.0979 36.7892 48.1569 36.662 48.2117C36.4781 48.2903 36.2886 48.3619 36.0963 48.4363L16.4381 10.0588C17.5892 9.33927 18.8056 8.72829 20.0714 8.2338L39.7295 46.6085L39.6305 46.6717Z" fill="white"/>
</svg>
