<svg width="22" height="20" viewBox="0 0 22 20" fill="none" xmlns="http://www.w3.org/2000/svg">
<path d="M11.4365 3.13184C13.167 0.0224399 17.3606 -0.418725 19.6582 2.27539L19.874 2.5459L20.2168 3.00293C22.0898 5.50243 21.8844 9.03568 19.7832 11.2832L19.5742 11.4971L11.8604 18.998C11.8003 19.0565 11.7434 19.1119 11.6895 19.1621L11.5371 19.2949C11.4572 19.3587 11.371 19.4161 11.2715 19.4531L11.167 19.4834C11.0843 19.5002 10.9996 19.5045 10.916 19.4961L10.833 19.4834C10.6876 19.4539 10.5696 19.38 10.4629 19.2949H10.4619C10.4143 19.2569 10.364 19.2119 10.3105 19.1621L10.1396 18.999V18.998L2.42578 11.4971C0.202547 9.33494 -0.130623 5.81185 1.6084 3.24805L1.7832 3.00293L2.12598 2.5459C4.29674 -0.350558 8.50273 -0.0973559 10.3877 2.83887L10.5635 3.13184L11 3.91699L11.4365 3.13184Z" fill="white" stroke="#003399"/>
</svg>
