<svg width="20" height="22" viewBox="0 0 20 22" fill="none" xmlns="http://www.w3.org/2000/svg">
<path d="M14.4167 1.92041H5.58333C5.26117 1.92041 5 2.18158 5 2.50374C5 4.11457 3.69416 5.42041 2.08333 5.42041H1.66667C1.29848 5.42041 1 5.71889 1 6.08708V6.94568C1 12.485 4.00313 17.5888 8.84533 20.2789L9.22355 20.489C9.70643 20.7573 10.2936 20.7573 10.7764 20.489L11.1547 20.2789C15.9969 17.5888 19 12.485 19 6.94568V6.08708C19 5.71889 18.7015 5.42041 18.3333 5.42041H17.9167C16.3058 5.42041 15 4.11457 15 2.50374C15 2.18158 14.7388 1.92041 14.4167 1.92041Z" stroke="#A4A4A4" stroke-width="2"/>
</svg>
