<svg width="24" height="25" viewBox="0 0 24 25" fill="none" xmlns="http://www.w3.org/2000/svg">
<path d="M11 4.0686H7.8C6.11984 4.0686 5.27976 4.0686 4.63803 4.39558C4.07354 4.6832 3.6146 5.14215 3.32698 5.70663C3 6.34837 3 7.18845 3 8.8686V16.2686C3 17.9488 3 18.7888 3.32698 19.4306C3.6146 19.9951 4.07354 20.454 4.63803 20.7416C5.27976 21.0686 6.11984 21.0686 7.8 21.0686H15.2C16.8802 21.0686 17.7202 21.0686 18.362 20.7416C18.9265 20.454 19.3854 19.9951 19.673 19.4306C20 18.7888 20 17.9488 20 16.2686V13.0686M20.1213 3.94728C21.2929 5.11886 21.2929 7.01835 20.1213 8.18992C18.9497 9.3615 17.0503 9.3615 15.8787 8.18992C14.7071 7.01835 14.7071 5.11886 15.8787 3.94728C17.0503 2.77571 18.9497 2.77571 20.1213 3.94728Z" stroke="#A4A4A4" stroke-width="2" stroke-linecap="round" stroke-linejoin="round"/>
</svg>
