<svg width="56" height="56" viewBox="0 0 56 56" fill="none" xmlns="http://www.w3.org/2000/svg">
<path d="M44.291 12.094V24.7024L43.6162 24.4514C43.3522 24.3529 42.89 24.3117 42.332 24.303C42.0644 24.2988 41.7944 24.3016 41.5371 24.304C41.2845 24.3063 41.038 24.3079 40.834 24.3L40.6299 24.2922L40.4893 24.1438C39.9185 23.5379 39.3274 22.9273 38.6699 22.4758C38.0196 22.0293 37.3371 21.7615 36.583 21.802L36.5547 21.804L36.5264 21.802C35.7791 21.7583 35.0978 22.0275 34.4453 22.4778C33.7857 22.933 33.1928 23.546 32.6201 24.1458L32.4736 24.3L32.2617 24.301L30.4736 24.3098L30.4746 24.3108C29.4761 24.3223 28.5218 24.7241 27.8164 25.4309C27.1109 26.138 26.7104 27.0941 26.7012 28.093V28.094L26.6816 29.8831L26.6797 30.0862L26.5371 30.2297L25.6465 31.1292L25.5 31.2776H11.709V12.094H44.291ZM18.3164 17.4563C18.0456 17.486 17.863 17.598 17.7422 17.7356C17.5964 17.9016 17.5142 18.1352 17.5146 18.384C17.5151 18.6327 17.5988 18.8661 17.7451 19.0325C17.884 19.1902 18.102 19.3145 18.4375 19.3196H37.5605C37.8995 19.3132 38.1178 19.1878 38.2559 19.0305C38.4015 18.8646 38.4839 18.6321 38.4834 18.384C38.4829 18.1361 38.4002 17.903 38.2539 17.7366C38.1324 17.5984 37.95 17.4862 37.6816 17.4563L37.5615 17.4485H18.4375L18.3164 17.4563Z" stroke="white"/>
<path d="M51.4688 36.5237C51.4655 36.9709 51.3087 37.4016 51.0273 37.7444L50.8984 37.885C50.537 38.2464 50.0482 38.4516 49.5371 38.4553H46.0322L47.1211 37.5676C48.1182 36.7554 48.7375 35.6951 48.8887 34.6213C49.0384 33.5584 48.7354 32.4494 47.8301 31.4944V31.4934L46.5752 30.2297L46.4355 30.0901L46.4307 29.8918C46.424 29.6598 46.4266 29.3884 46.4287 29.1145C46.4308 28.8358 46.4317 28.5471 46.4229 28.2629C46.4046 27.6749 46.3436 27.1837 46.2061 26.8772L46.1621 26.7786V11.1594L46.1572 11.0676C46.1355 10.8533 46.0404 10.652 45.8867 10.4983C45.733 10.3446 45.5317 10.2495 45.3174 10.2278L45.2256 10.2229H10.7725C10.6803 10.2228 10.5888 10.2363 10.501 10.2629L10.415 10.2942C10.3299 10.3294 10.2506 10.3766 10.1797 10.4348L10.1113 10.4963C10.0245 10.5832 9.9561 10.6865 9.90918 10.8C9.86231 10.9134 9.83775 11.0348 9.83789 11.1575V32.2122L9.84277 32.304C9.86455 32.5183 9.9596 32.7196 10.1133 32.8733C10.2887 33.0487 10.5263 33.1478 10.7744 33.1487H24.3174L24.2256 33.7268C23.9946 35.1877 24.7878 36.5036 26.0059 37.5803L26.9951 38.4553H6.46582C5.95333 38.4538 5.462 38.2494 5.09961 37.887C4.7825 37.5699 4.58605 37.1545 4.54102 36.7122L4.53125 36.5208V6.84009L4.54102 6.64966C4.58653 6.20798 4.78384 5.79347 5.10156 5.47778L5.24316 5.34985C5.58725 5.06968 6.01923 4.9163 6.4668 4.91724V4.91626H49.5342L49.7246 4.92603C50.1651 4.97023 50.5796 5.16413 50.8965 5.47876L51.0254 5.62036C51.3073 5.96186 51.4651 6.39147 51.4688 6.83813V36.5237Z" stroke="white"/>
<path d="M45.2848 44.3494L46.6207 48.0183L46.6608 48.157C46.6896 48.2981 46.6865 48.4446 46.652 48.5857C46.6059 48.7737 46.5048 48.9442 46.3619 49.075C46.2192 49.2055 46.0405 49.2908 45.8492 49.3201C45.706 49.3419 45.5602 49.3318 45.4225 49.2908L45.2867 49.239L42.903 48.1228L41.7848 50.5183C41.7029 50.6936 41.5713 50.8409 41.4059 50.9412C41.2404 51.0415 41.0484 51.0903 40.8551 51.0818C40.662 51.0732 40.4758 51.0076 40.3199 50.8933C40.2028 50.8074 40.1063 50.6968 40.0377 50.5701L39.9791 50.4382L38.5553 46.5193L38.4449 46.2175L38.6744 45.9919L40.5026 44.1931L40.6471 44.0505L40.8492 44.0486L44.8112 44.0203L45.1647 44.0173L45.2848 44.3494Z" stroke="white"/>
<path d="M28.3104 44.0203L32.2626 44.0486L32.4647 44.0505L32.6093 44.1931L34.4471 46.0017L34.6766 46.2273L34.5663 46.5291L33.1425 50.4402C33.0929 50.5763 33.0141 50.6994 32.912 50.8005L32.8016 50.8943C32.6846 50.9802 32.5504 51.0388 32.4091 51.0662L32.2665 51.0828C32.1215 51.0891 31.9773 51.0633 31.8446 51.0076L31.7157 50.9421C31.5917 50.8669 31.4865 50.7653 31.4071 50.6453L31.3368 50.5193L30.2177 48.1228L27.8348 49.239H27.8339C27.7025 49.3004 27.5598 49.3324 27.4159 49.3318L27.2714 49.3201C27.128 49.2981 26.9922 49.2442 26.8729 49.1638L26.7596 49.075C26.6168 48.9442 26.5157 48.7737 26.4696 48.5857C26.4235 48.3977 26.4337 48.2002 26.4999 48.0183L27.8368 44.3494L27.9569 44.0173L28.3104 44.0203Z" stroke="white"/>
<path d="M36.5591 23.6741C37.0666 23.6741 37.554 23.8735 37.9155 24.2297L39.8765 26.1624L42.6304 26.1829L42.8198 26.1936C43.2578 26.2399 43.6688 26.4352 43.9829 26.7493L44.1099 26.8889C44.3894 27.2292 44.5459 27.6567 44.5493 28.1008V28.1018L44.5688 30.8557L46.5015 32.8167L46.6274 32.9573C46.9047 33.2998 47.0581 33.7287 47.0581 34.1731C47.0581 34.6173 46.9045 35.0456 46.6274 35.3879L46.5015 35.5295L44.5688 37.4895L44.5483 40.2444C44.5451 40.6885 44.3893 41.1159 44.1099 41.4563L43.9829 41.5969C43.6689 41.9109 43.2577 42.1063 42.8198 42.1526L42.6304 42.1624L39.8765 42.1819L37.9155 44.1155C37.554 44.4718 37.0667 44.6721 36.5591 44.6721C36.1149 44.6721 35.6866 44.5184 35.3442 44.2415L35.2026 44.1155L33.2407 42.1819L30.4878 42.1624H30.4868C30.0427 42.159 29.6152 42.0034 29.2749 41.7239L29.1353 41.5969C28.8212 41.2829 28.626 40.8717 28.5796 40.4338L28.5688 40.2444L28.5483 37.4905L26.6167 35.5295C26.2603 35.1681 26.0601 34.6807 26.0601 34.1731L26.0698 33.9836C26.1129 33.5453 26.3048 33.133 26.6167 32.8167L28.5483 30.8547L28.5688 28.1008L28.5796 27.9124C28.6258 27.4743 28.8212 27.0634 29.1353 26.7493L29.2759 26.6213C29.6163 26.3421 30.0437 26.186 30.4878 26.1829L33.2407 26.1624L35.2026 24.2307V24.2297L35.3433 24.1038C35.6857 23.8267 36.1148 23.6741 36.5591 23.6741ZM36.5591 30.845C32.1668 30.9947 32.1658 37.3499 36.5591 37.5002C40.9512 37.3505 40.9524 30.9955 36.5591 30.845Z" stroke="white"/>
</svg>
