<svg width="95" height="94" viewBox="0 0 95 94" fill="none" xmlns="http://www.w3.org/2000/svg">
<circle cx="47.5484" cy="46.9677" r="46.9677" fill="#ECECEC"/>
<path d="M69.6032 46.7617C69.6032 47.2583 69.5867 47.7553 69.5536 48.2529C69.5375 48.4963 69.52 48.7398 69.4952 48.9774C69.4864 49.0774 69.4748 49.1759 69.4631 49.2745C69.4339 49.5363 69.4003 49.7986 69.3624 50.0613L69.3229 50.3091C69.2791 50.5816 69.2305 50.854 69.177 51.1264C69.1624 51.2018 69.1463 51.2713 69.1302 51.3539C69.0733 51.6264 69.012 51.8988 68.9434 52.1698C68.9244 52.2495 68.9025 52.3277 68.8821 52.4074C68.8134 52.6697 68.7361 52.9306 68.6631 53.1914C68.6353 53.2841 68.6061 53.3769 68.5755 53.4711C68.4996 53.7116 68.4207 53.9522 68.3361 54.1956C68.2952 54.313 68.2514 54.4304 68.2076 54.5478C68.1288 54.7579 68.0485 54.9665 67.9638 55.1752C67.9025 55.3201 67.8382 55.4737 67.774 55.623C67.6996 55.7954 67.628 55.9664 67.5448 56.1374C67.4616 56.3084 67.3667 56.5098 67.2733 56.6953C67.209 56.8257 67.1448 56.9547 67.0777 57.0837C66.9589 57.3097 66.8363 57.5334 66.7098 57.7546C66.6601 57.843 66.6105 57.9314 66.5638 58.0183C66.4178 58.2748 66.2557 58.5284 66.0937 58.782L65.99 58.9443C65.8119 59.2168 65.6251 59.4863 65.4324 59.7544L65.355 59.8645C65.1623 60.1282 64.9608 60.3891 64.755 60.647C64.7185 60.6934 64.6835 60.7398 64.647 60.7919C64.5156 60.9542 64.3813 61.1107 64.2455 61.2687L64.2294 61.2875L45.3693 24.4413C44.3747 22.4444 43.38 20.448 42.3854 18.4521C41.8014 18.5492 41.1956 18.6681 40.5576 18.8173C40.2554 18.8869 39.962 18.9622 39.6817 19.0361H39.6583H39.6422L39.6058 19.0448C39.2817 19.1318 38.9678 19.2216 38.6671 19.3129C33.2323 20.9581 28.4078 24.1591 24.7983 28.5147C24.7238 28.6045 24.6523 28.6958 24.572 28.7871L24.5457 28.8204C22.7105 31.0899 21.236 33.6247 20.1734 36.3369C20.1734 36.35 20.1632 36.3616 20.1588 36.3746C20.0931 36.5441 20.0274 36.7137 19.9646 36.8847C19.931 36.9774 19.896 37.0702 19.8624 37.1644L19.769 37.4295C19.7077 37.6063 19.6478 37.7831 19.5909 37.9614C19.5878 37.9684 19.5854 37.9757 19.5836 37.9831C18.6788 40.7647 18.2101 43.6678 18.1938 46.5908C18.1938 46.7357 18.1938 46.869 18.1938 47.0081C18.2215 51.0332 19.106 55.007 20.7894 58.669L20.8113 58.7183C20.8756 58.8632 20.9427 58.9965 21.0084 59.1342C21.0522 59.2255 21.0946 59.3153 21.1398 59.4051C21.1705 59.4703 21.204 59.5341 21.2362 59.5979C24.4023 65.9074 29.7974 70.8392 36.3926 73.4527L36.4758 73.4846C36.7288 73.5812 36.9838 73.6778 37.2408 73.7744L37.5152 73.8715C37.6378 73.915 37.7619 73.9584 37.886 73.999C38.086 74.0657 38.286 74.1309 38.4875 74.1932L38.7546 74.2743C38.9605 74.3352 39.1663 74.3946 39.3736 74.4526L39.5269 74.4946C39.7634 74.5584 40.0028 74.6192 40.2423 74.6772L40.4174 74.7192C40.6656 74.7772 40.9153 74.8337 41.1649 74.8859L41.2423 74.9018C41.8029 75.0177 42.3683 75.1143 42.9386 75.1916C44.4401 75.4061 45.9562 75.503 47.473 75.4814L44.0846 68.8678C43.6905 68.8137 43.3012 68.7509 42.9167 68.6794L42.6656 68.6301L42.2875 68.5504L41.8364 68.4475L41.5109 68.3664C41.3999 68.3388 41.2904 68.3098 41.181 68.2794L40.8583 68.1896L40.6598 68.1331C40.2977 68.0258 39.9415 67.9085 39.5897 67.7838H39.5809L39.5138 67.7592C39.3576 67.7041 39.2043 67.6462 39.0495 67.5867C38.8773 67.5201 38.7036 67.4534 38.5327 67.3839H38.524L38.486 67.3679C38.1371 67.223 37.7926 67.0694 37.4539 66.91L37.3853 66.8767C37.0846 66.7318 36.7897 66.5869 36.4977 66.4275L36.2656 66.3014C36.1517 66.2391 36.0407 66.1724 35.9283 66.1087V66.1174L35.8889 66.0956L35.8524 66.0739C35.5239 65.8841 35.2042 65.6884 34.8889 65.4856L34.8247 65.4435C34.5453 65.2629 34.2719 65.0764 34.0042 64.8842L33.7911 64.7291C33.5809 64.5755 33.3745 64.419 33.1721 64.2596C33.0509 64.1654 32.9312 64.0683 32.813 63.9698C32.667 63.8495 32.521 63.7293 32.3823 63.6075C32.2436 63.4858 32.0611 63.3264 31.9049 63.1829L31.629 62.9264C31.4378 62.7453 31.2494 62.5627 31.0655 62.3758L30.9049 62.2106C30.6976 61.9947 30.4932 61.7759 30.2947 61.5527C30.264 61.5194 30.2348 61.4846 30.2056 61.4513C29.9939 61.2107 29.7866 60.9658 29.5866 60.718L29.5268 60.6427C29.3239 60.3891 29.1268 60.1326 28.9428 59.8703L28.8742 59.7776C28.6932 59.5254 28.517 59.2699 28.3457 59.011L28.2421 58.853C28.0888 58.6168 27.9414 58.3792 27.7968 58.1386C27.7443 58.0502 27.6932 57.9604 27.6406 57.8705C27.5224 57.6648 27.407 57.459 27.2946 57.2503C27.2216 57.1141 27.1487 56.9764 27.0815 56.8388C26.9983 56.675 26.9151 56.5113 26.8362 56.3461C26.7457 56.1562 26.6581 55.965 26.5735 55.7737C26.5209 55.6563 26.4698 55.5389 26.4187 55.4216C26.3165 55.18 26.2192 54.9385 26.1267 54.697L26.0435 54.4782C25.9384 54.1884 25.8377 53.8986 25.7443 53.6087C25.7326 53.5711 25.7194 53.5348 25.7078 53.4972C25.6104 53.1813 25.5165 52.8629 25.426 52.5422C25.426 52.5263 25.4187 52.5103 25.4143 52.4944C25.3248 52.163 25.2435 51.8297 25.1705 51.4945C25.1674 51.4826 25.165 51.4705 25.1632 51.4583C25.0912 51.1298 25.0275 50.7994 24.972 50.4671C24.972 50.4396 24.9618 50.412 24.9574 50.3845C24.9068 50.0744 24.8625 49.7638 24.8245 49.4527C24.8158 49.3919 24.8085 49.331 24.8026 49.2701C24.7705 48.9963 24.7457 48.7224 24.7238 48.4471C24.7165 48.3355 24.7077 48.2239 24.7019 48.1109C24.6873 47.8877 24.6785 47.6645 24.6712 47.4414C24.6712 47.2646 24.6625 47.0878 24.661 46.911C24.6596 46.7342 24.661 46.5879 24.661 46.4256C24.661 46.1763 24.6742 45.9271 24.6858 45.6778C24.6858 45.5822 24.6946 45.488 24.7004 45.388C24.7209 45.0677 24.7472 44.7446 24.7822 44.4229L24.791 44.3287C24.8333 43.9606 24.8815 43.5911 24.9369 43.2216C25.0567 42.4826 25.2114 41.758 25.4012 41.0479C25.4085 41.0233 25.4143 40.9987 25.4202 40.974C25.4961 40.6842 25.5822 40.4118 25.6683 40.1336C25.699 40.0379 25.7253 39.9408 25.7574 39.8437C25.8202 39.6525 25.8888 39.4655 25.9574 39.2757C26.026 39.0859 26.0844 38.9134 26.1545 38.7323C26.1954 38.6308 26.2377 38.5309 26.2786 38.428C26.3851 38.1671 26.4932 37.9063 26.61 37.6469L26.6581 37.544C26.9608 36.8842 27.2976 36.2336 27.6684 35.5921C27.6705 35.588 27.6729 35.5842 27.6757 35.5805C27.8596 35.2646 28.0509 34.9559 28.2465 34.6531C28.2728 34.6125 28.3005 34.5719 28.3282 34.5313C28.4956 34.2763 28.6684 34.0256 28.8465 33.7793C28.9107 33.688 28.9779 33.5996 29.045 33.5097C29.1842 33.3233 29.3248 33.1393 29.4669 32.9576C29.5779 32.8127 29.6903 32.6794 29.8042 32.5432C29.8801 32.4519 29.9574 32.3621 30.0334 32.2737L36.1984 44.3012L36.2247 44.291L51.9621 75.0119C52.7864 74.9057 53.6038 74.7523 54.4103 74.5526L54.4716 74.5352L54.5388 74.5207C54.5622 74.5207 54.5826 74.5062 54.606 74.499L54.803 74.4439C54.9738 74.3975 55.1417 74.3511 55.3052 74.299L55.4512 74.2526C55.5563 74.2207 55.6658 74.1903 55.7695 74.157C56.3534 73.9734 56.9306 73.7739 57.5009 73.5585C57.5016 73.5628 57.5016 73.5672 57.5009 73.5715C57.6761 73.5049 57.8483 73.4266 58.0221 73.36L58.298 73.2484C58.571 73.1339 58.844 73.0165 59.114 72.8948C59.244 72.8354 59.3724 72.7774 59.5009 72.7166C59.7316 72.6084 59.9617 72.4968 60.1914 72.3818C60.3608 72.2978 60.5272 72.2108 60.6922 72.1239C60.882 72.0239 61.0703 71.9239 61.2586 71.8196C61.4469 71.7152 61.6031 71.6239 61.7754 71.5297C61.8586 71.4819 61.9374 71.4298 62.0192 71.3848L62.3112 71.208L62.682 70.9791C62.844 70.8762 63.0046 70.7704 63.1652 70.6646L63.3477 70.5444C63.409 70.5038 63.4703 70.4661 63.5302 70.4255C63.7832 70.2526 64.0338 70.0758 64.282 69.8952L64.5185 69.7198C64.7988 69.5112 65.0762 69.2967 65.3506 69.0764L65.5652 68.9011C65.8338 68.6808 66.099 68.4552 66.3609 68.2244L66.4791 68.1229C66.5755 68.0374 66.6689 67.9505 66.7711 67.8635C66.8995 67.7447 67.0295 67.6259 67.1565 67.5041C67.393 67.281 67.6236 67.0535 67.8514 66.8231C67.901 66.7709 67.9521 66.7216 67.9974 66.6695C69.9578 64.6577 71.6096 62.3707 72.8996 59.8819C72.9945 59.6979 73.088 59.5124 73.1785 59.3254C73.1989 59.282 73.2208 59.2399 73.2412 59.1965C73.3084 59.0516 73.3741 58.9168 73.4398 58.7748L73.5639 58.5052C73.6047 58.414 73.6442 58.3212 73.685 58.2299C73.7449 58.085 73.8047 57.9531 73.8631 57.814L73.9157 57.6851C75.344 54.2193 76.0741 50.5092 76.0646 46.7646L69.6032 46.7617ZM59.0381 65.7261C58.9184 65.8 58.7958 65.871 58.6746 65.9435C58.514 66.0406 58.352 66.1348 58.187 66.226C58.0513 66.3029 57.9155 66.371 57.7783 66.4507C57.641 66.5304 57.4659 66.6144 57.3082 66.6941C57.1505 66.7738 57.0235 66.839 56.8804 66.9057C56.7111 66.9868 56.5388 67.0636 56.3651 67.1404C56.2352 67.1984 56.1052 67.2593 55.9739 67.3158C55.7841 67.3969 55.5885 67.4708 55.3899 67.5476L35.0977 27.9322C36.2859 27.1895 37.5415 26.5588 38.8481 26.0483L59.1403 65.6609L59.0381 65.7261Z" fill="white"/>
</svg>
