<svg width="24" height="25" viewBox="0 0 24 25" fill="none" xmlns="http://www.w3.org/2000/svg">
<path d="M14 11.1372H8M10 15.1372H8M16 7.13721H8M20 6.93721V17.3372C20 19.0174 20 19.8574 19.673 20.4992C19.3854 21.0637 18.9265 21.5226 18.362 21.8102C17.7202 22.1372 16.8802 22.1372 15.2 22.1372H8.8C7.11984 22.1372 6.27976 22.1372 5.63803 21.8102C5.07354 21.5226 4.6146 21.0637 4.32698 20.4992C4 19.8574 4 19.0174 4 17.3372V6.93721C4 5.25705 4 4.41697 4.32698 3.77524C4.6146 3.21075 5.07354 2.75181 5.63803 2.46419C6.27976 2.13721 7.11984 2.13721 8.8 2.13721H15.2C16.8802 2.13721 17.7202 2.13721 18.362 2.46419C18.9265 2.75181 19.3854 3.21075 19.673 3.77524C20 4.41697 20 5.25705 20 6.93721Z" stroke="#A4A4A4" stroke-width="2" stroke-linecap="round" stroke-linejoin="round"/>
</svg>
