<svg width="41" height="41" viewBox="0 0 41 41" fill="none" xmlns="http://www.w3.org/2000/svg">
<path d="M21.8461 4.16626C24.708 1.13425 28.9897 0.24942 32.7279 1.49536H32.7269C33.1974 1.62436 33.5583 1.94976 33.6713 2.40161C33.7714 2.80239 33.6547 3.21302 33.3871 3.54614L33.264 3.68384L27.6674 9.28052L31.7201 13.3333L37.2904 7.76196C37.599 7.34668 38.0998 7.22829 38.5258 7.32642C38.9683 7.42855 39.3715 7.76816 39.5092 8.29321H39.5111C40.5747 12.0164 39.6948 16.2826 36.8422 19.1428L36.8431 19.1438C33.7205 22.4399 29.0815 23.2053 25.222 21.6116L10.3334 38.342L10.3285 38.3479C8.27863 40.5841 4.90129 40.7819 2.65173 38.5481V38.5491C0.371716 36.459 0.591054 32.8867 2.82263 30.8411L2.82751 30.8362L19.558 15.9456C18.0183 12.2062 18.6771 7.5967 21.5521 4.4729L21.8461 4.16626ZM26.1918 24.427C27.2143 24.5974 28.1969 24.76 29.3402 24.76H30.891L31.0336 24.8879L37.6644 30.8381L37.6683 30.8411L37.8724 31.0383C39.9187 33.1069 40.0327 36.3544 37.8539 38.5334C35.7619 40.7968 32.2024 40.5743 30.1615 38.3479L30.1556 38.342L22.1664 29.3323L21.8734 29.0022L22.1635 28.6711L25.7338 24.5911L25.9174 24.3811L26.1918 24.427ZM10.4603 8.2229L16.5804 14.343V15.2786L16.4193 15.428L14.2094 17.467L13.8558 17.7932L13.516 17.4534L7.37341 11.3098H4.91736L4.77087 11.0676L1.20154 5.11743L1.00037 4.78247L3.65662 2.12622L3.93298 1.85083L4.26697 2.05103L10.2172 5.62134L10.4603 5.76685V8.2229Z" stroke="white"/>
</svg>
