<svg width="371" height="94" viewBox="0 0 371 94" fill="none" xmlns="http://www.w3.org/2000/svg">
<g opacity="0.08">
<path d="M51.1928 61.6908C52.4072 61.2929 53.6009 60.8339 54.7693 60.3155C60.4032 57.7941 64.7376 54.1717 67.7725 49.4484C70.8075 44.7252 72.3249 39.0954 72.3249 32.5592C72.3249 25.8494 70.8075 20.1311 67.7725 15.4043C64.7376 10.6776 60.4032 7.05176 54.7693 4.52689C49.1389 2.00896 42.4063 0.75 34.5715 0.75H0V93.4792H9.75891V64.0872H34.5715C37.0604 64.0929 39.5476 63.9537 42.0204 63.6704L63.0851 93.5H73.7784L51.1928 61.6908ZM34.3067 55.7415H9.75891V9.2467H34.3067C43.55 9.2467 50.5698 11.2767 55.3662 15.3366C60.1627 19.3966 62.5591 25.1374 62.5557 32.5592C62.5557 39.8873 60.1592 45.5847 55.3662 49.6516C50.5733 53.7185 43.5535 55.7485 34.3067 55.7415Z" fill="white"/>
<path d="M143.211 40.5183C140.463 35.4306 136.333 31.1985 131.284 28.296C126.233 25.3924 120.459 23.9406 113.962 23.9406C107.889 23.8585 101.907 25.4092 96.6597 28.4263C91.5619 31.364 87.3655 35.6092 84.5162 40.7111C81.5736 45.921 80.1023 51.9019 80.1023 58.6538C80.1023 65.4058 81.6405 71.4075 84.7168 76.6591C87.7427 81.8583 92.164 86.1328 97.4939 89.0116C102.943 92.0021 109.268 93.4973 116.469 93.4973C121.684 93.5581 126.859 92.5855 131.686 90.6371C136.16 88.8258 140.118 85.9644 143.217 82.3013L137.937 76.3204C135.394 79.2916 132.163 81.6148 128.518 83.0933C124.772 84.5883 120.764 85.3407 116.723 85.3074C111.366 85.3074 106.6 84.2012 102.425 81.9888C98.3616 79.8814 94.9832 76.6851 92.6787 72.7673C90.6839 69.3233 89.517 65.4733 89.268 61.5141H147.425C147.425 60.9931 147.425 60.4981 147.493 60.0188C147.562 59.5395 147.557 59.0862 147.557 58.6538C147.557 51.8081 146.108 45.7629 143.211 40.5183ZM89.3313 54.6266C89.6122 50.9874 90.6397 47.4424 92.3514 44.2069C94.3614 40.4096 97.4227 37.2533 101.179 35.1053C105.068 32.9112 109.483 31.7884 113.962 31.8544C118.441 31.7669 122.86 32.8912 126.739 35.1053C130.435 37.2808 133.464 40.4047 135.503 44.1444C137.28 47.3761 138.34 50.944 138.613 54.611L89.3313 54.6266Z" fill="white"/>
<path d="M219.869 36.932C217.64 32.7214 214.17 29.3056 209.933 27.1523C205.71 25.0091 200.811 23.9375 195.235 23.9375C188.612 23.9375 182.905 25.3599 178.114 28.2047C174.396 30.3564 171.291 33.4315 169.097 37.1351V24.594H160.205V93.5H169.481V57.2729C169.481 52.0279 170.462 47.5436 172.423 43.8199C174.292 40.1965 177.207 37.2239 180.786 35.2907C184.404 33.3212 188.651 32.3365 193.528 32.3365C200.065 32.3365 205.141 34.1965 208.755 37.9167C212.37 41.6368 214.172 47.1267 214.162 54.3864V93.5H223.443V53.4902C223.443 46.828 222.252 41.3086 219.869 36.932Z" fill="white"/>
<path d="M290.039 23.9375L263.578 83.2253L237.482 23.9375H227.659L258.583 93.5H268.275L299.33 23.9375H290.039Z" fill="white"/>
<path d="M363.221 58.4801C363.221 59.0896 363.221 59.6938 363.164 60.2981C363.164 60.595 363.122 60.892 363.091 61.1889C363.091 61.3087 363.091 61.4285 363.055 61.5484C363.019 61.8713 362.977 62.1891 362.931 62.5068L362.884 62.809C362.832 63.1424 362.775 63.4758 362.708 63.8039C362.708 63.8977 362.672 63.9915 362.656 64.0853C362.584 64.4134 362.511 64.7468 362.428 65.0802C362.428 65.174 362.382 65.273 362.356 65.3667C362.273 65.6897 362.185 66.0075 362.092 66.3252C362.061 66.4346 362.024 66.5492 361.988 66.6638C361.895 66.9555 361.802 67.2525 361.698 67.539C361.651 67.6849 361.594 67.8255 361.543 67.9713C361.449 68.2266 361.351 68.4923 361.253 68.7371L361.02 69.2581C360.931 69.4664 360.843 69.6748 360.745 69.8832C360.647 70.0915 360.533 70.3364 360.419 70.5604L360.186 71.0344C360.041 71.3105 359.896 71.5814 359.74 71.8523L359.564 72.1752C359.383 72.4878 359.191 72.7951 358.994 73.1025L358.87 73.3004C358.658 73.6338 358.43 73.962 358.202 74.2902L358.109 74.4256C357.876 74.7486 357.632 75.0664 357.384 75.3789L357.254 75.5456C357.099 75.7436 356.933 75.9363 356.773 76.1291L334.082 31.2305L330.493 23.9375C329.794 24.0573 329.058 24.2032 328.292 24.3855C327.929 24.4688 327.577 24.5574 327.256 24.6512H327.209H327.168C326.774 24.7554 326.401 24.8647 326.039 24.9741C319.502 26.9773 313.699 30.8771 309.357 36.1845L309.082 36.5179L309.051 36.5595C306.843 39.3236 305.07 42.4122 303.794 45.7174V45.7643L303.561 46.3842L303.437 46.728L303.328 47.051L303.11 47.6969V47.7959C302.02 51.184 301.456 54.721 301.438 58.2821V58.8031C301.468 63.7089 302.526 68.5531 304.545 73.0191V73.0764C304.623 73.2484 304.7 73.4151 304.783 73.5974L304.939 73.9307L305.058 74.1652C308.865 81.8444 315.346 87.8478 323.268 91.0327L323.372 91.0744L324.288 91.4234L324.62 91.5432L325.065 91.6995L325.79 91.9339L326.111 92.0329L326.857 92.2517L327.038 92.3038C327.323 92.3819 327.613 92.4549 327.898 92.5226L328.111 92.5747L329.012 92.7778H329.105C329.778 92.9185 330.457 93.0383 331.146 93.1373C332.951 93.4018 334.775 93.522 336.599 93.4967L332.523 85.438C332.052 85.3703 331.581 85.2974 331.115 85.2088L330.814 85.1463L330.358 85.0525L329.84 84.9223L329.447 84.8285L329.053 84.7191L328.665 84.6097L328.427 84.542C327.991 84.4118 327.562 84.2659 327.137 84.1148H327.059C326.868 84.0471 326.686 83.9742 326.5 83.9013L325.878 83.6512H325.832C325.412 83.4741 324.998 83.2866 324.594 83.0938L324.511 83.0522C324.148 82.875 323.791 82.6927 323.444 82.5312L323.164 82.375C323.025 82.302 322.89 82.2187 322.755 82.1405L322.709 82.1145H322.667C322.274 81.8853 321.885 81.6457 321.507 81.3956L321.429 81.3487C321.093 81.1247 320.766 80.8955 320.445 80.6663L320.186 80.4736C319.933 80.286 319.668 80.0985 319.441 79.9058L319.011 79.5516L318.493 79.1087C318.296 78.9421 318.104 78.7684 317.918 78.5878L317.586 78.2753C317.358 78.0565 317.131 77.8325 316.908 77.6033L316.716 77.4001C316.462 77.1397 316.198 76.8792 315.981 76.6031L315.872 76.4781C315.618 76.1864 315.354 75.8842 315.131 75.5821L315.059 75.4935C314.815 75.181 314.577 74.8684 314.349 74.5506C314.318 74.5142 314.292 74.4725 314.266 74.4361C314.049 74.1287 313.837 73.8213 313.629 73.5036L313.505 73.3108C313.324 73.0243 313.143 72.7326 312.987 72.4409C312.92 72.3315 312.858 72.2221 312.796 72.1127C312.656 71.8627 312.516 71.5918 312.381 71.3574C312.293 71.1907 312.21 71.024 312.127 70.8364C312.045 70.6489 311.925 70.4353 311.832 70.2322C311.739 70.029 311.615 69.7685 311.516 69.5393C311.449 69.3935 311.387 69.2528 311.33 69.107C311.206 68.8152 311.086 68.5183 310.978 68.2214C310.941 68.1276 310.91 68.0391 310.874 67.9505C310.75 67.6067 310.625 67.2525 310.517 66.9087L310.47 66.7732C310.351 66.3877 310.237 65.9971 310.133 65.6064V65.5491C310.025 65.1427 309.926 64.7416 309.838 64.3301V64.2832C309.75 63.8873 309.672 63.481 309.605 63.0799V62.9757C309.543 62.6006 309.491 62.2203 309.445 61.8401C309.445 61.7671 309.445 61.6942 309.419 61.6213C309.382 61.2879 309.351 60.9493 309.325 60.6159L309.294 60.2096C309.294 59.9335 309.269 59.6886 309.258 59.3917C309.248 59.0948 309.258 58.9594 309.258 58.7458V58.1102C309.258 57.8081 309.258 57.506 309.289 57.1986C309.289 57.084 309.289 56.9694 309.289 56.8496C309.289 56.4589 309.346 56.0682 309.388 55.6775C309.385 55.6394 309.385 55.601 309.388 55.5629C309.434 55.1149 309.496 54.6617 309.569 54.2137C309.709 53.3125 309.9 52.4269 310.123 51.5622C310.123 51.5361 310.123 51.5049 310.123 51.4736C310.211 51.1298 310.315 50.786 310.418 50.4318L310.527 50.0828C310.605 49.8484 310.688 49.6191 310.765 49.3899C310.843 49.1607 310.921 48.9471 311.004 48.7284C311.055 48.6033 311.107 48.4835 311.154 48.3585C311.283 48.0407 311.413 47.723 311.553 47.4052C311.574 47.3645 311.593 47.3228 311.61 47.2802C311.972 46.478 312.376 45.6809 312.827 44.8996C313.049 44.5193 313.277 44.1442 313.515 43.7744L313.614 43.6233C313.816 43.3107 314.023 43.0086 314.235 42.7065L314.474 42.3783C314.645 42.1491 314.81 41.9251 314.992 41.7063C315.173 41.4875 315.256 41.3677 315.396 41.1853L315.67 40.8572L323.087 55.5265H323.118L341.986 92.9758C342.978 92.846 343.962 92.6582 344.933 92.4132H345.005H345.088L345.166 92.3871L345.404 92.3194C345.606 92.2621 345.808 92.21 346.005 92.1475L346.191 92.0902L346.575 91.9756C347.284 91.7516 347.978 91.512 348.646 91.2463L349.273 90.9858L349.604 90.8504C349.931 90.7098 350.262 90.5691 350.583 90.4181L351.049 90.2045L351.883 89.7929L352.484 89.4804L353.163 89.1105L353.784 88.7511L354.079 88.574L354.432 88.3552L354.877 88.0791L355.457 87.6936L355.68 87.5478L355.897 87.4019C356.203 87.1935 356.503 86.9799 356.804 86.7559L357.083 86.5424C357.425 86.2871 357.757 86.0214 358.088 85.7558L358.347 85.5422C358.668 85.2765 358.984 85.0213 359.3 84.7191C359.347 84.6775 359.398 84.641 359.445 84.5941L359.787 84.2815L360.248 83.844C360.533 83.5679 360.812 83.2918 361.087 83.0105L361.268 82.8229C363.639 80.3543 365.632 77.5455 367.183 74.4881C367.302 74.2641 367.411 74.0401 367.519 73.8109L367.597 73.6547C367.68 73.4828 367.758 73.3109 367.835 73.1337L367.986 72.8056C368.032 72.6962 368.079 72.5816 368.131 72.4722C368.182 72.3628 368.276 72.1336 368.343 71.9512C368.343 71.8991 368.384 71.847 368.41 71.795C370.13 67.5714 371.01 63.0495 371 58.4853L363.221 58.4801ZM350.511 81.5936C350.366 81.6873 350.216 81.7707 350.071 81.8592C349.926 81.9478 349.682 82.0937 349.485 82.203L348.967 82.4739L348.403 82.7761L347.885 83.0313L347.269 83.3178L346.797 83.5314C346.569 83.6304 346.331 83.7242 346.098 83.8127L321.735 35.5333C323.164 34.6269 324.674 33.8578 326.246 33.236L350.651 81.5102L350.511 81.5936Z" fill="white"/>
</g>
</svg>
