<svg width="176" height="44" viewBox="0 0 176 44" fill="none" xmlns="http://www.w3.org/2000/svg">
<path d="M24.2855 28.9099C24.8616 28.7211 25.4279 28.5034 25.9822 28.2575C28.6549 27.0613 30.7111 25.3429 32.1508 23.1022C33.5906 20.8615 34.3105 18.1908 34.3105 15.0901C34.3105 11.907 33.5906 9.19427 32.1508 6.95192C30.7111 4.70958 28.6549 2.98952 25.9822 1.79173C23.3112 0.597244 20.1173 0 16.4005 0H0V43.9901H4.62956V30.0467H16.4005C17.5812 30.0495 18.7611 29.9834 19.9342 29.849L29.9272 44H35L24.2855 28.9099ZM16.2749 26.0876H4.62956V4.03078H16.2749C20.6598 4.03078 23.99 4.99378 26.2654 6.91979C28.5408 8.8458 29.6776 11.5692 29.676 15.0901C29.676 18.5665 28.5391 21.2693 26.2654 23.1986C23.9916 25.1279 20.6615 26.0909 16.2749 26.0876Z" fill="#003399"/>
<path d="M67.9386 18.8658C66.6347 16.4523 64.6755 14.4446 62.2805 13.0677C59.8843 11.6902 57.145 11.0015 54.0626 11.0015C51.1816 10.9625 48.3442 11.6982 45.8547 13.1295C43.4363 14.5231 41.4456 16.537 40.0939 18.9573C38.698 21.4288 38 24.2661 38 27.4692C38 30.6723 38.7297 33.5195 40.1891 36.0108C41.6246 38.4773 43.722 40.505 46.2505 41.8708C48.8353 43.2894 51.8359 43.9987 55.2523 43.9987C57.7263 44.0276 60.1809 43.5662 62.4708 42.6419C64.5932 41.7826 66.4709 40.4252 67.9411 38.6874L65.4364 35.8501C64.23 37.2596 62.6973 38.3617 60.968 39.0631C59.1908 39.7723 57.2895 40.1293 55.3725 40.1135C52.8311 40.1135 50.5702 39.5887 48.5898 38.5391C46.6621 37.5394 45.0594 36.0231 43.9662 34.1646C43.0198 32.5307 42.4663 30.7043 42.3481 28.8261H69.9373C69.9373 28.5789 69.9373 28.3441 69.9699 28.1168C70.0025 27.8894 70 27.6743 70 27.4692C70 24.2216 69.3128 21.3538 67.9386 18.8658ZM42.3782 25.5587C42.5114 23.8323 42.9989 22.1506 43.8109 20.6157C44.7644 18.8142 46.2167 17.3169 47.9987 16.2979C49.8435 15.2571 51.9378 14.7244 54.0626 14.7557C56.1878 14.7142 58.284 15.2476 60.124 16.2979C61.8774 17.33 63.3143 18.812 64.2817 20.586C65.1249 22.1191 65.6278 23.8117 65.757 25.5513L42.3782 25.5587Z" fill="#003399"/>
<path d="M104.304 17.1645C103.247 15.167 101.601 13.5466 99.5909 12.5251C97.5875 11.5084 95.2633 11 92.6183 11C89.4761 11 86.7687 11.6748 84.4962 13.0243C82.7324 14.0451 81.2594 15.5039 80.2186 17.2609V11.3114H76V44H80.4007V26.8141C80.4007 24.3259 80.8659 22.1986 81.7962 20.4321C82.6832 18.7132 84.0659 17.303 85.7637 16.3859C87.48 15.4516 89.4949 14.9844 91.8085 14.9844C94.9097 14.9844 97.3176 15.8668 99.0322 17.6316C100.747 19.3964 101.602 22.0008 101.597 25.4448V44H106V25.0196C106 21.8591 105.435 19.2407 104.304 17.1645Z" fill="#003399"/>
<path d="M137.593 11L125.04 39.1258L112.66 11H108L122.67 44H127.268L142 11H137.593Z" fill="#003399"/>
<path d="M172.31 27.3868C172.31 27.6759 172.31 27.9626 172.283 28.2492C172.283 28.3901 172.263 28.531 172.248 28.6718C172.248 28.7287 172.248 28.7855 172.231 28.8423C172.214 28.9956 172.194 29.1463 172.172 29.297L172.15 29.4404C172.125 29.5985 172.098 29.7567 172.066 29.9124C172.066 29.9569 172.049 30.0014 172.042 30.0458C172.007 30.2015 171.973 30.3597 171.934 30.5178C171.934 30.5623 171.912 30.6093 171.899 30.6538C171.86 30.807 171.818 30.9577 171.774 31.1085C171.759 31.1604 171.742 31.2147 171.725 31.2691C171.681 31.4075 171.636 31.5484 171.587 31.6843C171.565 31.7535 171.538 31.8202 171.513 31.8894C171.469 32.0105 171.423 32.1365 171.376 32.2527L171.265 32.4998C171.224 32.5986 171.182 32.6975 171.135 32.7963C171.088 32.8952 171.034 33.0113 170.98 33.1176L170.87 33.3425C170.801 33.4734 170.732 33.6019 170.658 33.7304L170.575 33.8837C170.489 34.0319 170.398 34.1777 170.305 34.3236L170.246 34.4175C170.145 34.5756 170.037 34.7313 169.929 34.887L169.884 34.9512C169.774 35.1045 169.658 35.2552 169.54 35.4035L169.479 35.4826C169.405 35.5765 169.327 35.6679 169.251 35.7593L158.486 14.4597L156.784 11C156.452 11.0568 156.103 11.126 155.74 11.2125C155.568 11.2521 155.4 11.2941 155.248 11.3386H155.226H155.206C155.02 11.388 154.843 11.4399 154.671 11.4918C151.57 12.442 148.817 14.2921 146.757 16.8099L146.627 16.968L146.612 16.9878C145.564 18.2991 144.723 19.7643 144.118 21.3322V21.3545L144.007 21.6486L143.948 21.8117L143.897 21.9649L143.794 22.2713V22.3183C143.276 23.9256 143.009 25.6035 143 27.2929V27.54C143.014 29.8673 143.517 32.1653 144.474 34.284V34.3112C144.511 34.3927 144.548 34.4718 144.587 34.5583L144.661 34.7165L144.717 34.8277C146.523 38.4707 149.598 41.3186 153.356 42.8296L153.405 42.8493L153.84 43.0149L153.998 43.0717L154.209 43.1459L154.553 43.2571L154.705 43.304L155.059 43.4078L155.145 43.4325C155.28 43.4696 155.418 43.5042 155.553 43.5363L155.654 43.561L156.081 43.6574H156.125C156.445 43.7241 156.767 43.781 157.093 43.8279C157.95 43.9534 158.815 44.0104 159.681 43.9984L157.747 40.1754C157.523 40.1433 157.3 40.1087 157.079 40.0667L156.936 40.0371L156.72 39.9926L156.474 39.9308L156.287 39.8863L156.101 39.8344L155.916 39.7825L155.803 39.7504C155.597 39.6886 155.393 39.6194 155.192 39.5477H155.155C155.064 39.5156 154.978 39.481 154.889 39.4464L154.595 39.3278H154.572C154.373 39.2438 154.177 39.1548 153.985 39.0634L153.946 39.0436C153.774 38.9596 153.604 38.8731 153.44 38.7965L153.307 38.7224C153.241 38.6878 153.177 38.6482 153.113 38.6111L153.091 38.5988H153.071C152.885 38.4901 152.7 38.3764 152.521 38.2578L152.484 38.2355C152.324 38.1292 152.17 38.0205 152.017 37.9118L151.894 37.8203C151.774 37.7314 151.649 37.6424 151.541 37.551L151.337 37.3829L151.091 37.1729C150.998 37.0938 150.907 37.0114 150.818 36.9258L150.661 36.7775C150.553 36.6737 150.445 36.5674 150.339 36.4587L150.248 36.3623C150.128 36.2388 150.002 36.1152 149.899 35.9842L149.848 35.9249C149.727 35.7865 149.602 35.6432 149.496 35.4999L149.462 35.4578C149.346 35.3096 149.233 35.1613 149.125 35.0105C149.111 34.9932 149.098 34.9735 149.086 34.9562C148.983 34.8104 148.882 34.6646 148.784 34.5138L148.725 34.4224C148.639 34.2865 148.553 34.1481 148.479 34.0097C148.447 33.9578 148.418 33.9059 148.388 33.854C148.322 33.7354 148.256 33.6069 148.192 33.4957C148.15 33.4166 148.111 33.3375 148.071 33.2486C148.032 33.1596 147.975 33.0583 147.931 32.9619C147.887 32.8655 147.828 32.742 147.781 32.6332C147.749 32.564 147.72 32.4973 147.693 32.4281C147.634 32.2897 147.577 32.1489 147.526 32.008C147.509 31.9635 147.494 31.9215 147.477 31.8795C147.418 31.7164 147.359 31.5483 147.307 31.3852L147.285 31.321C147.228 31.1381 147.174 30.9528 147.125 30.7674V30.7403C147.074 30.5475 147.027 30.3572 146.985 30.162V30.1397C146.943 29.9519 146.907 29.7592 146.875 29.5689V29.5195C146.845 29.3415 146.821 29.1611 146.799 28.9807C146.799 28.9461 146.799 28.9115 146.786 28.8769C146.769 28.7188 146.754 28.5581 146.742 28.4L146.727 28.2072C146.727 28.0763 146.715 27.9601 146.71 27.8193C146.705 27.6784 146.71 27.6141 146.71 27.5128V27.2113C146.71 27.068 146.71 26.9247 146.725 26.7789C146.725 26.7245 146.725 26.6701 146.725 26.6133C146.725 26.4279 146.752 26.2426 146.771 26.0573C146.77 26.0392 146.77 26.021 146.771 26.0029C146.794 25.7904 146.823 25.5754 146.857 25.3628C146.924 24.9353 147.015 24.5152 147.12 24.105C147.12 24.0926 147.12 24.0778 147.12 24.063C147.162 23.8999 147.211 23.7368 147.26 23.5687L147.312 23.4031C147.349 23.2919 147.388 23.1832 147.425 23.0745C147.462 22.9657 147.499 22.8644 147.538 22.7606C147.563 22.7013 147.587 22.6445 147.609 22.5852C147.671 22.4344 147.732 22.2837 147.799 22.1329C147.809 22.1136 147.818 22.0938 147.826 22.0736C147.998 21.693 148.189 21.3149 148.403 20.9443C148.509 20.7639 148.617 20.5859 148.73 20.4105L148.776 20.3388C148.872 20.1905 148.97 20.0472 149.071 19.9039L149.184 19.7482C149.265 19.6394 149.344 19.5332 149.43 19.4294C149.516 19.3256 149.555 19.2688 149.622 19.1823L149.752 19.0266L153.27 25.9856H153.285L162.236 43.7513C162.707 43.6898 163.173 43.6007 163.634 43.4844H163.668H163.708L163.744 43.4721L163.857 43.4399C163.953 43.4128 164.049 43.3881 164.142 43.3584L164.231 43.3312L164.413 43.2768C164.749 43.1706 165.079 43.0569 165.396 42.9309L165.693 42.8073L165.85 42.7431C166.005 42.6763 166.162 42.6096 166.314 42.5379L166.536 42.4366L166.931 42.2414L167.216 42.0931L167.538 41.9177L167.833 41.7471L167.973 41.6631L168.14 41.5593L168.351 41.4284L168.627 41.2455L168.732 41.1763L168.835 41.1071C168.98 41.0083 169.123 40.9069 169.265 40.8007L169.398 40.6993C169.56 40.5783 169.717 40.4522 169.875 40.3262L169.998 40.2249C170.15 40.0988 170.3 39.9777 170.45 39.8344C170.472 39.8146 170.496 39.7973 170.518 39.7751L170.681 39.6268L170.899 39.4192C171.034 39.2883 171.167 39.1573 171.297 39.0238L171.383 38.9349C172.508 37.7638 173.454 36.4313 174.189 34.9809C174.246 34.8746 174.297 34.7684 174.349 34.6596L174.386 34.5855C174.425 34.504 174.462 34.4224 174.499 34.3384L174.57 34.1827C174.592 34.1308 174.614 34.0764 174.639 34.0245C174.663 33.9726 174.708 33.8639 174.74 33.7774C174.74 33.7527 174.759 33.728 174.771 33.7033C175.587 31.6996 176.005 29.5545 176 27.3893L172.31 27.3868ZM166.28 38.3517C166.211 38.3962 166.14 38.4357 166.071 38.4777C166.002 38.5197 165.887 38.5889 165.794 38.6408L165.548 38.7693L165.28 38.9126L165.034 39.0337L164.742 39.1696L164.518 39.271C164.41 39.3179 164.297 39.3624 164.187 39.4044L152.629 16.501C153.307 16.071 154.023 15.7061 154.769 15.4112L166.346 38.3121L166.28 38.3517Z" fill="#003399"/>
</svg>
