<svg width="21" height="26" viewBox="0 0 21 26" fill="none" xmlns="http://www.w3.org/2000/svg">
<path fill-rule="evenodd" clip-rule="evenodd" d="M16.625 0.8125C14.3814 0.8125 12.5625 2.63134 12.5625 4.875C12.5625 5.11989 12.5841 5.3597 12.6257 5.59265L6.71239 9.73198C6.68234 9.753 6.6539 9.77548 6.6271 9.79924C5.93741 9.25934 5.06879 8.9375 4.125 8.9375C1.88134 8.9375 0.0625 10.7564 0.0625 13C0.0625 15.2436 1.88134 17.0625 4.125 17.0625C5.06879 17.0625 5.93741 16.7406 6.6271 16.2008C6.6539 16.2245 6.68234 16.247 6.71239 16.268L12.6257 20.4074C12.5841 20.6402 12.5625 20.8801 12.5625 21.125C12.5625 23.3686 14.3814 25.1875 16.625 25.1875C18.8686 25.1875 20.6875 23.3686 20.6875 21.125C20.6875 18.8814 18.8686 17.0625 16.625 17.0625C15.309 17.0625 14.1391 17.6882 13.3968 18.6584L7.79757 14.7389C8.04761 14.2118 8.1875 13.6222 8.1875 13C8.1875 12.3778 8.04761 11.7882 7.79757 11.2611L13.3968 7.34163C14.1391 8.31178 15.309 8.9375 16.625 8.9375C18.8686 8.9375 20.6875 7.11866 20.6875 4.875C20.6875 2.63134 18.8686 0.8125 16.625 0.8125ZM14.4375 4.875C14.4375 3.66688 15.4169 2.6875 16.625 2.6875C17.8331 2.6875 18.8125 3.66688 18.8125 4.875C18.8125 6.08313 17.8331 7.0625 16.625 7.0625C15.4169 7.0625 14.4375 6.08313 14.4375 4.875ZM4.125 10.8125C2.91688 10.8125 1.9375 11.7919 1.9375 13C1.9375 14.2081 2.91688 15.1875 4.125 15.1875C5.33313 15.1875 6.3125 14.2081 6.3125 13C6.3125 11.7919 5.33313 10.8125 4.125 10.8125ZM16.625 18.9375C15.4169 18.9375 14.4375 19.9169 14.4375 21.125C14.4375 22.3331 15.4169 23.3125 16.625 23.3125C17.8331 23.3125 18.8125 22.3331 18.8125 21.125C18.8125 19.9169 17.8331 18.9375 16.625 18.9375Z" fill="#2553AD"/>
</svg>
