<svg width="48" height="44" viewBox="0 0 48 44" fill="none" xmlns="http://www.w3.org/2000/svg">
<path d="M2.07066 17.7881L5.33335 8V2.6C5.33335 2.03995 5.33335 1.75992 5.44235 1.54601C5.53822 1.35785 5.6912 1.20487 5.87936 1.10899C6.09328 1 6.3733 1 6.93335 1H41.0667C41.6267 1 41.9068 1 42.1207 1.10899C42.3088 1.20487 42.4618 1.35785 42.5577 1.54601C42.6667 1.75992 42.6667 2.03995 42.6667 2.6V8L45.9294 17.7881C46.4034 19.2101 46.6404 19.9211 46.4983 20.4871C46.3739 20.9825 46.0647 21.4115 45.634 21.6862C45.142 22 44.3926 22 42.8936 22H42.6667V39.8C42.6667 40.9201 42.6667 41.4802 42.4487 41.908C42.257 42.2843 41.951 42.5903 41.5747 42.782C41.1468 43 40.5868 43 39.4667 43H31H8.53335C7.41325 43 6.8532 43 6.42537 42.782C6.04905 42.5903 5.74309 42.2843 5.55134 41.908C5.33335 41.4802 5.33335 40.9201 5.33335 39.8V22H5.10645C3.60749 22 2.85801 22 2.36604 21.6862C1.93539 21.4115 1.62615 20.9825 1.50176 20.4871C1.35965 19.9211 1.59665 19.2101 2.07066 17.7881Z" fill="url(#paint0_linear_4071_314)"/>
<path d="M5.33335 8L2.07066 17.7881C1.59665 19.2101 1.35965 19.9211 1.50176 20.4871C1.62615 20.9825 1.93539 21.4115 2.36604 21.6862C2.85801 22 3.60749 22 5.10645 22H5.33335M5.33335 8V2.6C5.33335 2.03995 5.33335 1.75992 5.44235 1.54601C5.53822 1.35785 5.6912 1.20487 5.87936 1.10899C6.09328 1 6.3733 1 6.93335 1H41.0667C41.6267 1 41.9068 1 42.1207 1.10899C42.3088 1.20487 42.4618 1.35785 42.5577 1.54601C42.6667 1.75992 42.6667 2.03995 42.6667 2.6V8M5.33335 8H42.6667M42.6667 8L45.9294 17.7881C46.4034 19.2101 46.6404 19.9211 46.4983 20.4871C46.3739 20.9825 46.0647 21.4115 45.634 21.6862C45.142 22 44.3926 22 42.8936 22H42.6667M5.33335 22V39.8C5.33335 40.9201 5.33335 41.4802 5.55134 41.908C5.74309 42.2843 6.04905 42.5903 6.42537 42.782C6.8532 43 7.41325 43 8.53335 43H31M5.33335 22H24H42.6667M42.6667 22V39.8C42.6667 40.9201 42.6667 41.4802 42.4487 41.908C42.257 42.2843 41.951 42.5903 41.5747 42.782C41.1468 43 40.5868 43 39.4667 43H31M31 43V31.3333M21.6667 31.3333H14.6667" stroke="url(#paint1_linear_4071_314)" stroke-width="2" stroke-linecap="round"/>
<defs>
<linearGradient id="paint0_linear_4071_314" x1="24" y1="1" x2="24" y2="43" gradientUnits="userSpaceOnUse">
<stop offset="0.47345" stop-color="white" stop-opacity="0.32"/>
<stop offset="1" stop-color="white" stop-opacity="0"/>
</linearGradient>
<linearGradient id="paint1_linear_4071_314" x1="24" y1="1" x2="24" y2="43" gradientUnits="userSpaceOnUse">
<stop offset="0.645717" stop-color="white"/>
<stop offset="1" stop-color="white" stop-opacity="0"/>
</linearGradient>
</defs>
</svg>
