<svg width="20" height="20" viewBox="0 0 20 20" fill="none" xmlns="http://www.w3.org/2000/svg">
<path d="M3.33335 5L2.19373 8.41886C1.93445 9.19672 2.51342 10 3.33335 10V10M3.33335 5V4.1C3.33335 3.53995 3.33335 3.25992 3.44235 3.04601C3.53822 2.85785 3.6912 2.70487 3.87936 2.60899C4.09327 2.5 4.3733 2.5 4.93335 2.5H15.0667C15.6267 2.5 15.9068 2.5 16.1207 2.60899C16.3088 2.70487 16.4618 2.85785 16.5577 3.04601C16.6667 3.25992 16.6667 3.53995 16.6667 4.1V5M3.33335 5H16.6667M16.6667 5L17.8063 8.41886C18.0656 9.19672 17.4866 10 16.6667 10V10M3.33335 10V14.3C3.33335 15.4201 3.33335 15.9802 3.55134 16.408C3.74309 16.7843 4.04905 17.0903 4.42537 17.282C4.8532 17.5 5.41325 17.5 6.53335 17.5H12.5M3.33335 10H10H16.6667M16.6667 10V14.3C16.6667 15.4201 16.6667 15.9802 16.4487 16.408C16.257 16.7843 15.951 17.0903 15.5747 17.282C15.1468 17.5 14.5868 17.5 13.4667 17.5H12.5M12.5 17.5V13.3333M9.16669 13.3333H6.66669" stroke="white" stroke-linecap="round"/>
</svg>
