<svg width="14" height="16" viewBox="0 0 14 16" fill="none" xmlns="http://www.w3.org/2000/svg">
<path d="M7.00006 3.05078C3.68635 3.05078 1.00006 5.73707 1.00006 9.05078C1.00006 12.3645 3.68635 15.0508 7.00006 15.0508C10.3138 15.0508 13.0001 12.3645 13.0001 9.05078C13.0001 5.73707 10.3138 3.05078 7.00006 3.05078ZM7.00006 3.05078V1.05078M11.0001 4.38411L12.3334 3.05078M3.00006 4.38411L1.66672 3.05078M5.66672 1.05078H8.33339M7.00006 6.38411V9.05078M11.6667 2.1064C12.3069 2.55816 12.8778 3.10154 13.3603 3.71745M0.75824 3.71745C1.21082 3.13979 1.74112 2.62593 2.33339 2.19161" stroke="#A4A4A4" stroke-linecap="round"/>
</svg>
