<svg width="17" height="18" viewBox="0 0 17 18" fill="none" xmlns="http://www.w3.org/2000/svg">
<path d="M8.50011 11.166C10.2116 11.166 11.5991 9.77857 11.5991 8.06706C11.5991 6.35555 10.2116 4.9681 8.50011 4.9681C6.7886 4.9681 5.40115 6.35555 5.40115 8.06706C5.40115 9.77857 6.7886 11.166 8.50011 11.166ZM8.50011 11.166C10.9156 11.166 12.9276 12.4614 13.3686 14.1764M8.50011 11.166C6.08465 11.166 4.0726 12.4614 3.63161 14.1764M15.5834 9.2181C15.5834 13.1301 12.412 16.3014 8.50002 16.3014C4.588 16.3014 1.41669 13.1301 1.41669 9.2181C1.41669 5.30608 4.588 2.13477 8.50002 2.13477C12.412 2.13477 15.5834 5.30608 15.5834 9.2181Z" stroke="#A4A4A4" stroke-linecap="round"/>
</svg>
