<svg width="24" height="24" viewBox="0 0 26 27" fill="none" xmlns="http://www.w3.org/2000/svg">
    <g clip-path="url(#clip0)">
        <path
            d="M18.5208 1.75H7.47917C7.07646 1.75 6.75 2.07646 6.75 2.47917C6.75 4.4927 5.1177 6.125 3.10417 6.125H2.58333C2.1231 6.125 1.75 6.4981 1.75 6.95833V8.03159C1.75 14.9557 5.50392 21.3355 11.5567 24.6981L12.0294 24.9608C12.633 25.2961 13.367 25.2961 13.9706 24.9608L14.4433 24.6981C20.4961 21.3355 24.25 14.9557 24.25 8.03159V6.95833C24.25 6.4981 23.8769 6.125 23.4167 6.125H22.8958C20.8823 6.125 19.25 4.4927 19.25 2.47917C19.25 2.07646 18.9235 1.75 18.5208 1.75Z"
            fill="none"
            stroke="#218A23"
            stroke-width="2"
            stroke-linecap="round"
        />
        <path
            d="M16.75 10.5L12.1919 15.0581C11.9479 15.3021 11.5521 15.3021 11.3081 15.0581L9.25 13"
            stroke="#218A23"
            stroke-linecap="round"
        />
    </g>
    <defs>
        <clipPath id="clip0">
            <rect width="26" height="27" fill="white"/>
        </clipPath>
    </defs>
</svg>
