<svg width="101" height="96" viewBox="0 0 101 96" fill="none" xmlns="http://www.w3.org/2000/svg">
<path d="M50.502 1C52.5047 1 54.6215 1.92462 55.6729 3.91309L99.3154 86.4111L99.4814 86.75C99.8439 87.5521 100.021 88.4274 99.998 89.3105C99.9715 90.3197 99.6843 91.305 99.1641 92.1699C98.6437 93.035 97.9074 93.7501 97.0283 94.2461C96.15 94.7416 95.1587 95.0007 94.1504 94.999V95H6.85449V94.999C5.84532 95.0007 4.85265 94.742 3.97363 94.2461C3.09429 93.7499 2.35864 93.0341 1.83789 92.1689C1.31711 91.3036 1.02887 90.3173 1.00195 89.3076C0.975121 88.2982 1.20986 87.2989 1.68359 86.4072H1.68457L45.3311 3.91211C46.3825 1.92413 48.4995 1.00005 50.502 1ZM46.6523 78.4414H54.3516V70.7363H46.6523V78.4414ZM46.6523 59.0312H54.3564L54.3516 36.7676H46.6523V59.0312Z" fill="#E3E3E3" stroke="#898A8D" stroke-width="2"/>
</svg>
